<svg xmlns="http://www.w3.org/2000/svg" xmlns:xlink="http://www.w3.org/1999/xlink" width="375" height="375" xmlns:v="https://vecta.io/nano"><defs><path d="M23.86-20.55a2.4 2.4 0 0 1 .28.8 8.2 8.2 0 0 1 .05 1.02v16.17c0 1.34-.37 2.13-1.11 2.36-.37.12-.84.17-1.41.17-.56 0-1.01-.05-1.34-.14a2.4 2.4 0 0 1-.75-.36c-.18-.13-.31-.33-.41-.58a6 6 0 0 1-.14-1.52v-9.77l-2.14 2.88-1.77 2.47-.53.69a2.8 2.8 0 0 1-.72.53c-.37.22-.78.33-1.22.33s-.84-.1-1.2-.31a2.9 2.9 0 0 1-.77-.59l-.22-.33c-.4-.48-1.17-1.51-2.31-3.09L6.3-12.39v9.83a8.1 8.1 0 0 1-.05 1.02 2.1 2.1 0 0 1-.28.73c-.29.52-1.05.78-2.27.78-1.19 0-1.93-.26-2.22-.78-.16-.27-.25-.52-.28-.75-.02-.24-.03-.59-.03-1.06V-18.8l.03-1c.03-.23.13-.49.28-.78.29-.5 1.05-.75 2.28-.75.52 0 .97.06 1.34.19.38.13.63.26.75.39l.17.17 6.61 8.69 6.63-8.66c.32-.52 1.1-.78 2.33-.78 1.24 0 1.99.26 2.27.78zm0 0" id="A"/><path d="M15.13-20.58c.2-.31.48-.52.84-.64a4.7 4.7 0 0 1 1.38-.17 4.6 4.6 0 0 1 1.33.16c.33.09.59.21.77.34s.3.34.38.61c.11.34.17.84.17 1.52v8.8a11.3 11.3 0 0 1-2.39 7 8.6 8.6 0 0 1-3 2.41c-1.22.6-2.57.91-4.06.91C9.05.34 7.7.04 6.48-.58c-1.22-.62-2.2-1.44-2.95-2.45-1.57-2.06-2.36-4.39-2.36-7v-8.77l.03-1.03c.03-.23.13-.49.28-.78s.41-.49.78-.61c.38-.11.87-.17 1.48-.17a5.2 5.2 0 0 1 1.48.17c.38.12.63.32.77.61.24.45.36 1.06.36 1.84v8.73c0 1.19.29 2.32.88 3.39.28.54.71.98 1.3 1.31a4.2 4.2 0 0 0 2.08.48c1.41 0 2.47-.52 3.17-1.56.7-1.05 1.05-2.27 1.05-3.64v-8.92c0-.76.1-1.3.3-1.61zm0 0" id="B"/><path d="M1.48-3C.98-3.62.73-4.18.73-4.67c0-.5.41-1.16 1.25-1.97.48-.47.99-.7 1.53-.7.55 0 1.31.48 2.28 1.45a4.3 4.3 0 0 0 1.16.95c.51.3.98.45 1.41.45 1.81 0 2.72-.74 2.72-2.22 0-.45-.25-.82-.75-1.12a5.4 5.4 0 0 0-1.84-.66c-.74-.13-1.54-.35-2.39-.66S4.44-9.8 3.7-10.2s-1.36-1.05-1.86-1.94c-.49-.88-.73-1.95-.73-3.19a6.1 6.1 0 0 1 1.91-4.47c1.27-1.27 3-1.91 5.2-1.91 1.16 0 2.23.15 3.19.45.96.29 1.63.59 2 .91l.73.56c.59.56.89 1.04.89 1.42s-.23.92-.69 1.61c-.67.97-1.35 1.45-2.05 1.45a3 3 0 0 1-1.52-.58 2.9 2.9 0 0 1-.34-.3c-.16-.16-.3-.28-.44-.37-.41-.26-.93-.39-1.56-.39s-1.16.15-1.58.45-.62.73-.62 1.27a1.5 1.5 0 0 0 .73 1.3c.5.32 1.12.55 1.86.67a23 23 0 0 1 2.42.53c.88.24 1.68.54 2.42.89a4.2 4.2 0 0 1 1.84 1.81c.5.87.75 1.93.75 3.2a7 7 0 0 1-.77 3.33c-.5.96-1.16 1.7-1.98 2.23A9 9 0 0 1 8.48.3a10.1 10.1 0 0 1-2.61-.33c-.81-.23-1.47-.51-1.97-.84C2.88-1.5 2.16-2.1 1.75-2.69zm0 0" id="C"/><path d="M6.33-5.16h8.97c.45 0 .78.02 1 .05.23.02.49.11.78.27.52.28.78 1.04.78 2.28 0 1.36-.36 2.15-1.08 2.39a4.8 4.8 0 0 1-1.52.17H3.73C2.37 0 1.57-.37 1.34-1.11c-.12-.31-.17-.8-.17-1.48v-16.2c0-.99.18-1.66.55-2.02.36-.36 1.06-.55 2.09-.55H15.3c.45 0 .78.02 1 .05.23.03.49.12.78.27.52.28.78 1.04.78 2.28 0 1.36-.36 2.15-1.08 2.39a4.8 4.8 0 0 1-1.52.17H6.33v2.94h5.77c.45 0 .78.02 1 .05.23.03.49.13.78.28.52.27.78 1.03.78 2.27 0 1.37-.37 2.16-1.11 2.39a4.5 4.5 0 0 1-1.52.19h-5.7zm0 0" id="D"/><path d="M8.86 0h-.87L7.8-2.37l-.41-3.87H7.3L5.14-.91h-.81L2.28-6.25h-.11l-.41 3.8L1.56 0H.73l.81-7.8h1.11l.41 1.19 1.69 4.44h.06l1.78-4.52L7-7.8h1.09zm0 0" id="E"/><path d="M6.7-3.83l-.02.88c.02.96-.23 1.7-.75 2.23s-1.26.8-2.22.8C2.8.08 2.1-.18 1.61-.69S.88-1.91.91-2.84V-7.8h.95l-.03 4.83c-.01.73.15 1.28.48 1.66.33.37.83.55 1.48.55s1.16-.17 1.5-.52c.34-.35.51-.87.5-1.56L5.75-7.8h.97zm0 0" id="F"/><path d="M3.25-7.86c.56 0 1.14.12 1.73.36l-.16.94-.17.05a2.7 2.7 0 0 0-.75-.41c-.26-.1-.52-.16-.78-.16-.3 0-.56.06-.78.19s-.39.29-.52.48a1.1 1.1 0 0 0-.17.59c0 .22.07.41.2.58s.3.31.5.44c.21.13.48.27.83.44l1.06.58c.27.17.5.39.69.66s.28.59.28.97c0 .41-.11.78-.33 1.13s-.53.62-.92.81a3 3 0 0 1-1.36.3c-.34 0-.7-.04-1.08-.12C1.16-.14.83-.28.52-.47l.13-.98.13-.06c.28.27.59.48.94.61.35.14.69.2 1 .2s.59-.06.83-.19.42-.29.55-.48c.13-.21.19-.42.19-.64 0-.34-.13-.62-.39-.83a6 6 0 0 0-1.19-.67l-1.03-.56c-.26-.16-.48-.38-.67-.64C.8-4.99.7-5.32.7-5.7c0-.39.1-.76.31-1.09.22-.33.52-.59.91-.78a3 3 0 0 1 1.33-.28zm0 0" id="G"/><path d="M2.06-2.44L2.13 0h-1l.06-2.34-.06-5.45h1zm0 0" id="H"/><path d="M3.92-7.86c.82 0 1.53.2 2.13.58l-.19.89-.11.03c-.55-.46-1.18-.69-1.87-.69-.77 0-1.37.27-1.78.8s-.62 1.31-.62 2.33a3.8 3.8 0 0 0 .63 2.36c.41.54 1 .81 1.75.81a3.2 3.2 0 0 0 1.06-.19c.35-.12.68-.3.97-.55l.13.06-.08.92c-.71.39-1.43.58-2.16.58A3 3 0 0 1 1.33-.94C.75-1.61.47-2.58.47-3.83c0-1.29.3-2.29.89-2.98.6-.7 1.46-1.05 2.56-1.05zm0 0" id="I"/><path d="M3.52-7.81c.76 0 1.35.2 1.77.59.41.39.63.95.63 1.69 0 .88-.26 1.56-.78 2.06-.51.49-1.22.73-2.12.73h-.94v.3L2.13 0h-1l.06-2.34-.06-5.45zm-.16 4.28c.5-.08.88-.29 1.14-.61.27-.32.41-.75.41-1.3 0-1.01-.54-1.54-1.61-1.58l-1.17.05-.05 3.42zm0 0" id="J"/><path d="M5.03-.73L4.94 0H1.09l.06-2.34-.06-5.45h1l-.06 5.36.03 1.63h2.89zm0 0" id="K"/><path d="M6.77 0h-1l-.17-.78-.44-1.34-1.77-.03-1.58.03-.47 1.3-.2.83H.17l2.86-7.8h1.13zM4.88-2.95L3.61-6.8h-.08L2.13-2.95l1.36.03zm0 0" id="L"/><path d="M3.55-2.28L3.58 0h-.97l.06-2.28-.02-.5L.19-7.8h1.05l.16.44 1.7 3.5h.08l1.88-3.48.19-.45h1.02L3.56-2.83zm0 0" id="M"/><path d="M5.59-.75L5.52 0H1.13l.06-2.34-.06-5.45h4.41l.05.09-.08.75-1.84-.03-1.53.02-.03 2.56 1.45.03 1.3-.05.08.09-.09.75-1.36-.03-1.39.02-.02 1.16.05 1.63 1.55.02 1.88-.06zm0 0" id="N"/><path d="M4.31-3.16A31.8 31.8 0 0 0 6.33-.23l-.02.13c-.29.11-.59.19-.89.22L5.28.03 3.5-2.89H2.06v.45L2.13 0h-1l.06-2.34-.06-5.45 2.39-.02c.76 0 1.35.2 1.77.58.43.39.64.93.64 1.64 0 .54-.14 1.03-.42 1.45a2.7 2.7 0 0 1-1.19.98zm-2.23-.56l1.47.03A1.7 1.7 0 0 0 4.91-5.5c0-.5-.14-.87-.41-1.11-.26-.25-.66-.38-1.2-.41l-1.17.05zm0 0" id="O"/><path d="M7.13-2.28L7.14 0H6.13L2.08-6.25h-.06V0h-.87l.05-2.31-.03-5.48h1.02L6.2-1.56h.08l-.02-6.19.92-.08zm0 0" id="P"/><path d="M3.95-7.84c1.11 0 1.97.32 2.56.95.59.63.89 1.53.89 2.72 0 1.37-.32 2.42-.97 3.16C5.8-.29 4.88.08 3.67.08A30.9 30.9 0 0 1 2.45.05L1.14 0h-.02l.06-2.34-.06-5.45h.02zM3.83-.75c.83 0 1.47-.27 1.91-.8.45-.54.67-1.35.67-2.42 0-2.04-.84-3.06-2.52-3.06l-1.77.05-.06 4.55.05 1.63.91.05.81.02zm0 0" id="Q"/><path d="M3.95-7.87c1.07 0 1.89.33 2.47.98s.86 1.61.86 2.84c0 1.32-.31 2.34-.92 3.06A3.2 3.2 0 0 1 3.77.09C2.7.09 1.88-.24 1.31-.92.75-1.61.47-2.58.47-3.83c0-1.3.3-2.3.91-3s1.46-1.05 2.58-1.05zm-.06.8c-1.62 0-2.44 1.05-2.44 3.14 0 1.11.2 1.93.59 2.47.39.53.99.8 1.78.8 1.63 0 2.44-1.07 2.44-3.2 0-1.08-.2-1.88-.59-2.41-.39-.53-.98-.8-1.78-.8zm0 0" id="R"/><path d="M7.97 0h-1L5.44-4.53h-.08L3.75 0H2.73L.25-7.8h.98l.13.75 1.91 5.97h.08l1.69-4.75-.66-1.97h1l.17.83 1.92 5.89h.08L9.67-7l.17-.8h.92zm0 0" id="S"/><clipPath id="T"><path d="M157 133h74.27v67.77H157zm0 0"/></clipPath><clipPath id="U"><path d="M199.13 133.65c-9.55.07-17.09 4.25-21.62 7.55a18.6 18.6 0 0 1 2.05-1.12c.71-.33 1.43-.61 2.17-.85a18.7 18.7 0 0 1 2.27-.57c.77-.14 1.54-.24 2.32-.28a18.6 18.6 0 0 1 2.33.01c.78.05 1.55.16 2.32.3s1.52.35 2.26.59 1.46.54 2.16.87a17.9 17.9 0 0 1 2.04 1.14 18.1 18.1 0 0 1 1.88 1.39c.59.5 1.16 1.04 1.69 1.61a18.2 18.2 0 0 1 1.48 1.81c.45.63.86 1.29 1.23 1.98a18.6 18.6 0 0 1 .98 2.12 18.4 18.4 0 0 1 1.12 4.52 18.8 18.8 0 0 1-.14 5.32c-.91 4.46-3.77 15.51-13.59 23.09-9.18 7.09-21.82 9.16-34.4 6.05a43.9 43.9 0 0 0 60.73-1.27c3.33-3.31 6.05-7.07 8.16-11.26s3.52-8.61 4.21-13.26c.63-4.3.64-8.6.02-12.9-8.16-10.59-19.76-16.92-31.67-16.85zm0 0"/></clipPath><clipPath id="V"><path d="M143.52 113.02H231V191h-87.48zm0 0"/></clipPath><clipPath id="W"><path d="M218.41 125.86a43.9 43.9 0 0 0-69.19 52.68c1.96 3.45 4.34 6.57 7.14 9.37l1.32 1.27c12.58 3.11 25.22 1.03 34.4-6.05 9.81-7.58 12.68-18.63 13.59-23.09a18.5 18.5 0 0 1-4.24 8.97 18.5 18.5 0 0 1-3.75 3.31c-1.4.93-2.9 1.66-4.5 2.19s-3.24.82-4.93.9-3.34-.07-4.98-.45a18.4 18.4 0 0 1-4.69-1.76 18.5 18.5 0 0 1-4.04-2.95l-.26-.24c-.49-.49-.95-1.01-1.39-1.55s-.84-1.11-1.21-1.7-.71-1.2-1.01-1.82a17.4 17.4 0 0 1-.8-1.92c-.23-.66-.43-1.32-.58-2s-.27-1.36-.35-2.05a18.5 18.5 0 0 1-.12-2.08 18.4 18.4 0 0 1 .12-2.07 18.1 18.1 0 0 1 .35-2.05 19.8 19.8 0 0 1 .57-2c.23-.66.5-1.29.8-1.92s.64-1.23 1.01-1.82a18 18 0 0 1 1.21-1.7 18.6 18.6 0 0 1 1.39-1.55 17.4 17.4 0 0 1 1.55-1.38 19 19 0 0 1 1.7-1.2c4.53-3.29 12.06-7.48 21.62-7.55 11.91-.07 23.5 6.26 31.67 16.85-.68-4.67-2.08-9.11-4.2-13.32s-4.84-7.98-8.18-11.32zm0 0"/></clipPath><linearGradient x1="159.72" y1="202.8" x2="230.1" gradientUnits="userSpaceOnUse" y2="132.42" xlink:type="simple" xlink:actuate="onLoad" id="X" xlink:show="other"><stop stop-color="#008dff" offset="0"/><stop stop-color="#008dff" offset=".09"/><stop stop-color="#028cfe" offset=".09"/><stop stop-color="#028bfe" offset=".09"/><stop stop-color="#038afd" offset=".1"/><stop stop-color="#048afd" offset=".1"/><stop stop-color="#0589fd" offset=".11"/><stop stop-color="#0688fc" offset=".11"/><stop stop-color="#0788fc" offset=".11"/><stop stop-color="#0887fb" offset=".12"/><stop stop-color="#0886fb" offset=".12"/><stop stop-color="#0985fb" offset=".13"/><stop stop-color="#0a85fa" offset=".13"/><stop stop-color="#0b84fa" offset=".13"/><stop stop-color="#0c83fa" offset=".14"/><stop stop-color="#0d83f9" offset=".14"/><stop stop-color="#0d82f9" offset=".14"/><stop stop-color="#0e81f8" offset=".15"/><stop stop-color="#0f81f8" offset=".15"/><stop stop-color="#1080f8" offset=".16"/><stop stop-color="#117ff7" offset=".16"/><stop stop-color="#127ff7" offset=".16"/><stop stop-color="#127ef6" offset=".17"/><stop stop-color="#137df6" offset=".17"/><stop stop-color="#147cf6" offset=".18"/><stop stop-color="#157cf5" offset=".18"/><stop stop-color="#167bf5" offset=".18"/><stop stop-color="#177af4" offset=".19"/><stop stop-color="#187af4" offset=".19"/><stop stop-color="#1879f4" offset=".2"/><stop stop-color="#1978f3" offset=".2"/><stop stop-color="#1a78f3" offset=".2"/><stop stop-color="#1b77f2" offset=".21"/><stop stop-color="#1c76f2" offset=".21"/><stop stop-color="#1d76f2" offset=".22"/><stop stop-color="#1d75f1" offset=".22"/><stop stop-color="#1e74f1" offset=".22"/><stop stop-color="#1f74f1" offset=".23"/><stop stop-color="#2073f0" offset=".23"/><stop stop-color="#2172f0" offset=".23"/><stop stop-color="#2271ef" offset=".24"/><stop stop-color="#2271ef" offset=".24"/><stop stop-color="#2370ef" offset=".25"/><stop stop-color="#246fee" offset=".25"/><stop stop-color="#256fee" offset=".25"/><stop stop-color="#266eed" offset=".26"/><stop stop-color="#276ded" offset=".26"/><stop stop-color="#286ded" offset=".27"/><stop stop-color="#286cec" offset=".27"/><stop stop-color="#296bec" offset=".27"/><stop stop-color="#2a6beb" offset=".28"/><stop stop-color="#2b6aeb" offset=".28"/><stop stop-color="#2c69eb" offset=".28"/><stop stop-color="#2d68ea" offset=".29"/><stop stop-color="#2d68ea" offset=".29"/><stop stop-color="#2e67e9" offset=".3"/><stop stop-color="#2f66e9" offset=".3"/><stop stop-color="#3066e9" offset=".31"/><stop stop-color="#3165e8" offset=".31"/><stop stop-color="#3264e8" offset=".31"/><stop stop-color="#3264e8" offset=".32"/><stop stop-color="#3363e7" offset=".32"/><stop stop-color="#3462e7" offset=".32"/><stop stop-color="#3562e6" offset=".33"/><stop stop-color="#3661e6" offset=".33"/><stop stop-color="#3760e6" offset=".34"/><stop stop-color="#3860e5" offset=".34"/><stop stop-color="#385fe5" offset=".34"/><stop stop-color="#395ee4" offset=".35"/><stop stop-color="#3a5de4" offset=".35"/><stop stop-color="#3b5de4" offset=".36"/><stop stop-color="#3c5ce3" offset=".36"/><stop stop-color="#3d5be3" offset=".36"/><stop stop-color="#3d5be2" offset=".37"/><stop stop-color="#3e5ae2" offset=".37"/><stop stop-color="#3f59e2" offset=".38"/><stop stop-color="#4059e1" offset=".38"/><stop stop-color="#4158e1" offset=".38"/><stop stop-color="#4257e0" offset=".39"/><stop stop-color="#4257e0" offset=".39"/><stop stop-color="#4356e0" offset=".4"/><stop stop-color="#4455df" offset=".4"/><stop stop-color="#4554df" offset=".4"/><stop stop-color="#4654df" offset=".41"/><stop stop-color="#4753de" offset=".41"/><stop stop-color="#4852de" offset=".41"/><stop stop-color="#4852dd" offset=".42"/><stop stop-color="#4951dd" offset=".42"/><stop stop-color="#4a50dd" offset=".43"/><stop stop-color="#4b50dc" offset=".43"/><stop stop-color="#4c4fdc" offset=".43"/><stop stop-color="#4d4edb" offset=".44"/><stop stop-color="#4d4edb" offset=".44"/><stop stop-color="#4e4ddb" offset=".45"/><stop stop-color="#4f4cda" offset=".45"/><stop stop-color="#504cda" offset=".45"/><stop stop-color="#514bd9" offset=".46"/><stop stop-color="#524ad9" offset=".46"/><stop stop-color="#5249d9" offset=".47"/><stop stop-color="#5349d8" offset=".47"/><stop stop-color="#5448d8" offset=".47"/><stop stop-color="#5547d7" offset=".48"/><stop stop-color="#5647d7" offset=".48"/><stop stop-color="#5746d7" offset=".48"/><stop stop-color="#5845d6" offset=".49"/><stop stop-color="#5845d6" offset=".49"/><stop stop-color="#5944d5" offset=".5"/><stop stop-color="#5a43d5" offset=".5"/><stop stop-color="#5b43d5" offset=".5"/><stop stop-color="#5c42d4" offset=".51"/><stop stop-color="#5d41d4" offset=".51"/><stop stop-color="#5d40d4" offset=".52"/><stop stop-color="#5e40d3" offset=".52"/><stop stop-color="#5f3fd3" offset=".52"/><stop stop-color="#603ed2" offset=".53"/><stop stop-color="#613ed2" offset=".53"/><stop stop-color="#623dd2" offset=".54"/><stop stop-color="#623cd1" offset=".54"/><stop stop-color="#633cd1" offset=".54"/><stop stop-color="#643bd0" offset=".55"/><stop stop-color="#653ad0" offset=".55"/><stop stop-color="#663ad0" offset=".56"/><stop stop-color="#6739cf" offset=".56"/><stop stop-color="#6838cf" offset=".56"/><stop stop-color="#6837ce" offset=".57"/><stop stop-color="#6937ce" offset=".57"/><stop stop-color="#6a36ce" offset=".57"/><stop stop-color="#6b35cd" offset=".58"/><stop stop-color="#6c35cd" offset=".58"/><stop stop-color="#6d34cc" offset=".59"/><stop stop-color="#6d33cc" offset=".59"/><stop stop-color="#6e33cc" offset=".59"/><stop stop-color="#6f32cb" offset=".6"/><stop stop-color="#7031cb" offset=".6"/><stop stop-color="#7131cb" offset=".61"/><stop stop-color="#7230ca" offset=".61"/><stop stop-color="#722fca" offset=".61"/><stop stop-color="#732fc9" offset=".62"/><stop stop-color="#742ec9" offset=".62"/><stop stop-color="#752dc9" offset=".63"/><stop stop-color="#762cc8" offset=".63"/><stop stop-color="#772cc8" offset=".63"/><stop stop-color="#782bc7" offset=".64"/><stop stop-color="#782ac7" offset=".64"/><stop stop-color="#792ac7" offset=".65"/><stop stop-color="#7a29c6" offset=".65"/><stop stop-color="#7b28c6" offset=".65"/><stop stop-color="#7c28c5" offset=".66"/><stop stop-color="#7d27c5" offset=".66"/><stop stop-color="#7d26c5" offset=".66"/><stop stop-color="#7e26c4" offset=".67"/><stop stop-color="#7f25c4" offset=".67"/><stop stop-color="#8024c3" offset=".68"/><stop stop-color="#8123c3" offset=".68"/><stop stop-color="#8223c3" offset=".68"/><stop stop-color="#8222c2" offset=".69"/><stop stop-color="#8321c2" offset=".69"/><stop stop-color="#8421c2" offset=".7"/><stop stop-color="#8520c1" offset=".7"/><stop stop-color="#861fc1" offset=".7"/><stop stop-color="#871fc0" offset=".71"/><stop stop-color="#881ec0" offset=".71"/><stop stop-color="#881dc0" offset=".72"/><stop stop-color="#891dbf" offset=".72"/><stop stop-color="#8a1cbf" offset=".72"/><stop stop-color="#8b1bbe" offset=".73"/><stop stop-color="#8c1bbe" offset=".73"/><stop stop-color="#8d1abe" offset=".73"/><stop stop-color="#8d19bd" offset=".74"/><stop stop-color="#8e18bd" offset=".74"/><stop stop-color="#8f18bc" offset=".75"/><stop stop-color="#9017bc" offset=".75"/><stop stop-color="#9116bc" offset=".75"/><stop stop-color="#9216bb" offset=".76"/><stop stop-color="#9215bb" offset=".76"/><stop stop-color="#9314ba" offset=".77"/><stop stop-color="#9414ba" offset=".77"/><stop stop-color="#9513ba" offset=".77"/><stop stop-color="#9612b9" offset=".78"/><stop stop-color="#9712b9" offset=".78"/><stop stop-color="#9811b8" offset=".79"/><stop stop-color="#9810b8" offset=".79"/><stop stop-color="#990fb8" offset=".79"/><stop stop-color="#9a0fb7" offset=".8"/><stop stop-color="#9b0eb7" offset=".8"/><stop stop-color="#9c0db7" offset=".81"/><stop stop-color="#9d0db6" offset=".81"/><stop stop-color="#9d0cb6" offset=".81"/><stop stop-color="#9e0bb5" offset=".82"/><stop stop-color="#9f0bb5" offset=".82"/><stop stop-color="#a00ab5" offset=".82"/><stop stop-color="#a109b4" offset=".83"/><stop stop-color="#a209b4" offset=".83"/><stop stop-color="#a208b3" offset=".84"/><stop stop-color="#a307b3" offset=".84"/><stop stop-color="#a407b3" offset=".84"/><stop stop-color="#a506b2" offset=".85"/><stop stop-color="#a605b2" offset=".85"/><stop stop-color="#a704b1" offset=".86"/><stop stop-color="#a804b1" offset=".86"/><stop stop-color="#a803b1" offset=".86"/><stop stop-color="#a902b0" offset=".87"/><stop stop-color="#aa02b0" offset=".87"/><stop stop-color="#ab01af" offset=".88"/><stop stop-color="#ac00af" offset=".88"/></linearGradient><linearGradient x1="141.5" y1="190.27" x2="224.78" gradientUnits="userSpaceOnUse" y2="107" xlink:type="simple" xlink:actuate="onLoad" id="Y" xlink:show="other"><stop stop-color="#0000b1" offset="0"/><stop stop-color="#0000b1" offset=".1"/><stop stop-color="#0001b1" offset=".11"/><stop stop-color="#0001b1" offset=".11"/><stop stop-color="#0002b2" offset=".11"/><stop stop-color="#0003b2" offset=".12"/><stop stop-color="#0004b2" offset=".12"/><stop stop-color="#0005b3" offset=".13"/><stop stop-color="#0006b3" offset=".13"/><stop stop-color="#0008b4" offset=".13"/><stop stop-color="#0009b4" offset=".14"/><stop stop-color="#000ab4" offset=".14"/><stop stop-color="#000bb5" offset=".14"/><stop stop-color="#000db5" offset=".15"/><stop stop-color="#000eb6" offset=".15"/><stop stop-color="#000fb6" offset=".16"/><stop stop-color="#0010b7" offset=".16"/><stop stop-color="#0012b7" offset=".16"/><stop stop-color="#0013b7" offset=".17"/><stop stop-color="#0014b8" offset=".17"/><stop stop-color="#0015b8" offset=".18"/><stop stop-color="#0017b9" offset=".18"/><stop stop-color="#0018b9" offset=".18"/><stop stop-color="#0019b9" offset=".19"/><stop stop-color="#001aba" offset=".19"/><stop stop-color="#001cba" offset=".2"/><stop stop-color="#001dbb" offset=".2"/><stop stop-color="#001ebb" offset=".2"/><stop stop-color="#001fbc" offset=".21"/><stop stop-color="#0021bc" offset=".21"/><stop stop-color="#0022bc" offset=".22"/><stop stop-color="#0023bd" offset=".22"/><stop stop-color="#0024bd" offset=".22"/><stop stop-color="#0026be" offset=".23"/><stop stop-color="#0027be" offset=".23"/><stop stop-color="#0028bf" offset=".23"/><stop stop-color="#0029bf" offset=".24"/><stop stop-color="#002bbf" offset=".24"/><stop stop-color="#002cc0" offset=".25"/><stop stop-color="#002dc0" offset=".25"/><stop stop-color="#002ec1" offset=".25"/><stop stop-color="#0030c1" offset=".26"/><stop stop-color="#0031c1" offset=".26"/><stop stop-color="#0032c2" offset=".27"/><stop stop-color="#0033c2" offset=".27"/><stop stop-color="#0035c3" offset=".27"/><stop stop-color="#0036c3" offset=".28"/><stop stop-color="#0037c4" offset=".28"/><stop stop-color="#0038c4" offset=".28"/><stop stop-color="#003ac4" offset=".29"/><stop stop-color="#003bc5" offset=".29"/><stop stop-color="#003cc5" offset=".3"/><stop stop-color="#003dc6" offset=".3"/><stop stop-color="#003fc6" offset=".31"/><stop stop-color="#0040c7" offset=".31"/><stop stop-color="#0041c7" offset=".31"/><stop stop-color="#0042c7" offset=".32"/><stop stop-color="#0043c8" offset=".32"/><stop stop-color="#0045c8" offset=".32"/><stop stop-color="#0046c9" offset=".33"/><stop stop-color="#0047c9" offset=".33"/><stop stop-color="#0048c9" offset=".34"/><stop stop-color="#0049ca" offset=".34"/><stop stop-color="#004aca" offset=".34"/><stop stop-color="#004bca" offset=".35"/><stop stop-color="#004ccb" offset=".35"/><stop stop-color="#004dcb" offset=".36"/><stop stop-color="#004fcc" offset=".36"/><stop stop-color="#0050cc" offset=".36"/><stop stop-color="#0051cc" offset=".37"/><stop stop-color="#0052cd" offset=".37"/><stop stop-color="#0053cd" offset=".38"/><stop stop-color="#0054ce" offset=".38"/><stop stop-color="#0055ce" offset=".38"/><stop stop-color="#0056ce" offset=".39"/><stop stop-color="#0057cf" offset=".39"/><stop stop-color="#0059cf" offset=".4"/><stop stop-color="#005ad0" offset=".4"/><stop stop-color="#005bd0" offset=".4"/><stop stop-color="#005cd0" offset=".41"/><stop stop-color="#005dd1" offset=".41"/><stop stop-color="#005ed1" offset=".41"/><stop stop-color="#005fd1" offset=".42"/><stop stop-color="#0060d2" offset=".42"/><stop stop-color="#0062d2" offset=".43"/><stop stop-color="#0063d3" offset=".43"/><stop stop-color="#0064d3" offset=".43"/><stop stop-color="#0065d3" offset=".44"/><stop stop-color="#0066d4" offset=".44"/><stop stop-color="#0067d4" offset=".45"/><stop stop-color="#0068d5" offset=".45"/><stop stop-color="#0069d5" offset=".45"/><stop stop-color="#006ad5" offset=".46"/><stop stop-color="#006cd6" offset=".46"/><stop stop-color="#006dd6" offset=".47"/><stop stop-color="#006ed7" offset=".47"/><stop stop-color="#006fd7" offset=".47"/><stop stop-color="#0070d7" offset=".48"/><stop stop-color="#0071d8" offset=".48"/><stop stop-color="#0072d8" offset=".48"/><stop stop-color="#0073d8" offset=".49"/><stop stop-color="#0074d9" offset=".49"/><stop stop-color="#0075d9" offset=".5"/><stop stop-color="#0076d9" offset=".5"/><stop stop-color="#0077da" offset=".5"/><stop stop-color="#0078da" offset=".51"/><stop stop-color="#0078da" offset=".51"/><stop stop-color="#0079da" offset=".52"/><stop stop-color="#007adb" offset=".52"/><stop stop-color="#007bdb" offset=".52"/><stop stop-color="#007cdb" offset=".53"/><stop stop-color="#007ddc" offset=".53"/><stop stop-color="#007edc" offset=".54"/><stop stop-color="#007fdc" offset=".54"/><stop stop-color="#0080dd" offset=".54"/><stop stop-color="#0081dd" offset=".55"/><stop stop-color="#0081dd" offset=".55"/><stop stop-color="#0082dd" offset=".56"/><stop stop-color="#0083de" offset=".56"/><stop stop-color="#0084de" offset=".56"/><stop stop-color="#0085de" offset=".57"/><stop stop-color="#0086df" offset=".57"/><stop stop-color="#0087df" offset=".57"/><stop stop-color="#0088df" offset=".58"/><stop stop-color="#0089e0" offset=".58"/><stop stop-color="#008ae0" offset=".59"/><stop stop-color="#008ae0" offset=".59"/><stop stop-color="#008be0" offset=".59"/><stop stop-color="#008ce1" offset=".6"/><stop stop-color="#008de1" offset=".6"/><stop stop-color="#008ee1" offset=".61"/><stop stop-color="#008fe2" offset=".61"/><stop stop-color="#0090e2" offset=".61"/><stop stop-color="#0091e2" offset=".62"/><stop stop-color="#0092e3" offset=".62"/><stop stop-color="#0093e3" offset=".63"/><stop stop-color="#0093e3" offset=".63"/><stop stop-color="#0094e3" offset=".63"/><stop stop-color="#0095e4" offset=".64"/><stop stop-color="#0096e4" offset=".64"/><stop stop-color="#0097e4" offset=".65"/><stop stop-color="#0097e4" offset=".65"/><stop stop-color="#0098e5" offset=".65"/><stop stop-color="#0099e5" offset=".66"/><stop stop-color="#0099e5" offset=".66"/><stop stop-color="#009ae5" offset=".66"/><stop stop-color="#009be6" offset=".67"/><stop stop-color="#009be6" offset=".67"/><stop stop-color="#009ce6" offset=".68"/><stop stop-color="#009de6" offset=".68"/><stop stop-color="#009de6" offset=".68"/><stop stop-color="#009ee7" offset=".69"/><stop stop-color="#009fe7" offset=".69"/><stop stop-color="#009fe7" offset=".7"/><stop stop-color="#00a0e7" offset=".7"/><stop stop-color="#00a1e8" offset=".7"/><stop stop-color="#00a1e8" offset=".71"/><stop stop-color="#00a2e8" offset=".71"/><stop stop-color="#00a2e8" offset=".72"/><stop stop-color="#00a3e8" offset=".72"/><stop stop-color="#00a4e9" offset=".72"/><stop stop-color="#00a4e9" offset=".73"/><stop stop-color="#00a5e9" offset=".73"/><stop stop-color="#00a6e9" offset=".73"/><stop stop-color="#00a6ea" offset=".74"/><stop stop-color="#00a7ea" offset=".74"/><stop stop-color="#00a8ea" offset=".75"/><stop stop-color="#00a8ea" offset=".75"/><stop stop-color="#00a9ea" offset=".75"/><stop stop-color="#00aaeb" offset=".76"/><stop stop-color="#00aaeb" offset=".76"/><stop stop-color="#00abeb" offset=".77"/><stop stop-color="#00abeb" offset=".77"/><stop stop-color="#00aceb" offset=".78"/><stop stop-color="#00adec" offset=".79"/><stop stop-color="#00aeec" offset=".8"/><stop stop-color="#00aeec" offset=".81"/><stop stop-color="#00afed" offset=".81"/><stop stop-color="#00b0ed" offset=".82"/><stop stop-color="#00b1ed" offset=".83"/><stop stop-color="#00b1ed" offset=".84"/><stop stop-color="#00b2ee" offset=".84"/><stop stop-color="#00b3ee" offset=".88"/></linearGradient></defs><g clip-path="url(#T)"><g clip-path="url(#U)"><path fill="url(#X)" d="M124.09 167.17l70.38 70.38 70.38-70.38-70.38-70.38zm0 0"/></g></g><g clip-path="url(#V)"><g clip-path="url(#W)"><path fill="url(#Y)" d="M103.88 152.65l83.28 83.28 83.28-83.28-83.28-83.28zm0 0"/></g></g><g fill="#0053c2"><use x="142.24" y="236.21" xlink:href="#A" xlink:type="simple" xlink:actuate="onLoad" xlink:show="embed"/><use x="170.4" y="236.21" xlink:href="#B" xlink:type="simple" xlink:actuate="onLoad" xlink:show="embed"/><use x="194.35" y="236.21" xlink:href="#C" xlink:type="simple" xlink:actuate="onLoad" xlink:show="embed"/><use x="214.14" y="236.21" xlink:href="#D" xlink:type="simple" xlink:actuate="onLoad" xlink:show="embed"/></g><g fill="#8e17eb"><use x="61.76" y="262.47" xlink:href="#E" xlink:type="simple" xlink:actuate="onLoad" xlink:show="embed"/><use x="74.33" y="262.47" xlink:href="#F" xlink:type="simple" xlink:actuate="onLoad" xlink:show="embed"/><use x="84.91" y="262.47" xlink:href="#G" xlink:type="simple" xlink:actuate="onLoad" xlink:show="embed"/><use x="93.62" y="262.47" xlink:href="#H" xlink:type="simple" xlink:actuate="onLoad" xlink:show="embed"/><use x="99.85" y="262.47" xlink:href="#I" xlink:type="simple" xlink:actuate="onLoad" xlink:show="embed"/><use x="114.13" y="262.47" xlink:href="#J" xlink:type="simple" xlink:actuate="onLoad" xlink:show="embed"/><use x="123.42" y="262.47" xlink:href="#K" xlink:type="simple" xlink:actuate="onLoad" xlink:show="embed"/><use x="131.45" y="262.47" xlink:href="#L" xlink:type="simple" xlink:actuate="onLoad" xlink:show="embed"/><use x="141.46" y="262.47" xlink:href="#M" xlink:type="simple" xlink:actuate="onLoad" xlink:show="embed"/><use x="150.85" y="262.47" xlink:href="#N" xlink:type="simple" xlink:actuate="onLoad" xlink:show="embed"/><use x="159.68" y="262.47" xlink:href="#O" xlink:type="simple" xlink:actuate="onLoad" xlink:show="embed"/><use x="174.38" y="262.47" xlink:href="#L" xlink:type="simple" xlink:actuate="onLoad" xlink:show="embed"/><use x="184.38" y="262.47" xlink:href="#P" xlink:type="simple" xlink:actuate="onLoad" xlink:show="embed"/><use x="195.66" y="262.47" xlink:href="#Q" xlink:type="simple" xlink:actuate="onLoad" xlink:show="embed"/><use x="211.47" y="262.47" xlink:href="#Q" xlink:type="simple" xlink:actuate="onLoad" xlink:show="embed"/><use x="222.3" y="262.47" xlink:href="#R" xlink:type="simple" xlink:actuate="onLoad" xlink:show="embed"/><use x="232.99" y="262.47" xlink:href="#S" xlink:type="simple" xlink:actuate="onLoad" xlink:show="embed"/><use x="246.82" y="262.47" xlink:href="#P" xlink:type="simple" xlink:actuate="onLoad" xlink:show="embed"/><use x="258.1" y="262.47" xlink:href="#K" xlink:type="simple" xlink:actuate="onLoad" xlink:show="embed"/><use x="266.13" y="262.47" xlink:href="#R" xlink:type="simple" xlink:actuate="onLoad" xlink:show="embed"/><use x="276.83" y="262.47" xlink:href="#L" xlink:type="simple" xlink:actuate="onLoad" xlink:show="embed"/><use x="286.83" y="262.47" xlink:href="#Q" xlink:type="simple" xlink:actuate="onLoad" xlink:show="embed"/><use x="297.66" y="262.47" xlink:href="#N" xlink:type="simple" xlink:actuate="onLoad" xlink:show="embed"/><use x="306.49" y="262.47" xlink:href="#O" xlink:type="simple" xlink:actuate="onLoad" xlink:show="embed"/></g></svg>