<svg xmlns="http://www.w3.org/2000/svg" xmlns:xlink="http://www.w3.org/1999/xlink" width="375" viewBox="0 0 375 375" height="375" version="1.0"><defs><g id="g"><path d="M 23.859375 -20.546875 C 24.015625 -20.253906 24.109375 -19.988281 24.140625 -19.75 C 24.171875 -19.519531 24.1875 -19.179688 24.1875 -18.734375 L 24.1875 -2.5625 C 24.1875 -1.21875 23.816406 -0.429688 23.078125 -0.203125 C 22.710938 -0.0859375 22.242188 -0.03125 21.671875 -0.03125 C 21.109375 -0.03125 20.660156 -0.078125 20.328125 -0.171875 C 20.003906 -0.273438 19.753906 -0.394531 19.578125 -0.53125 C 19.398438 -0.664062 19.265625 -0.859375 19.171875 -1.109375 C 19.078125 -1.441406 19.03125 -1.945312 19.03125 -2.625 L 19.03125 -12.390625 C 18.539062 -11.785156 17.828125 -10.828125 16.890625 -9.515625 C 15.960938 -8.203125 15.375 -7.378906 15.125 -7.046875 C 14.875 -6.722656 14.695312 -6.492188 14.59375 -6.359375 C 14.5 -6.234375 14.257812 -6.054688 13.875 -5.828125 C 13.5 -5.609375 13.09375 -5.5 12.65625 -5.5 C 12.21875 -5.5 11.816406 -5.601562 11.453125 -5.8125 C 11.097656 -6.019531 10.84375 -6.21875 10.6875 -6.40625 L 10.46875 -6.734375 C 10.070312 -7.210938 9.300781 -8.242188 8.15625 -9.828125 C 7.007812 -11.410156 6.390625 -12.265625 6.296875 -12.390625 L 6.296875 -2.5625 C 6.296875 -2.113281 6.28125 -1.773438 6.25 -1.546875 C 6.21875 -1.328125 6.125 -1.082031 5.96875 -0.8125 C 5.675781 -0.289062 4.921875 -0.03125 3.703125 -0.03125 C 2.515625 -0.03125 1.773438 -0.289062 1.484375 -0.8125 C 1.328125 -1.082031 1.234375 -1.332031 1.203125 -1.5625 C 1.179688 -1.800781 1.171875 -2.15625 1.171875 -2.625 L 1.171875 -18.796875 C 1.171875 -19.242188 1.179688 -19.578125 1.203125 -19.796875 C 1.234375 -20.023438 1.328125 -20.285156 1.484375 -20.578125 C 1.773438 -21.078125 2.535156 -21.328125 3.765625 -21.328125 C 4.285156 -21.328125 4.734375 -21.265625 5.109375 -21.140625 C 5.492188 -21.015625 5.742188 -20.882812 5.859375 -20.75 L 6.03125 -20.578125 L 12.640625 -11.890625 C 15.941406 -16.265625 18.148438 -19.148438 19.265625 -20.546875 C 19.585938 -21.066406 20.363281 -21.328125 21.59375 -21.328125 C 22.832031 -21.328125 23.585938 -21.066406 23.859375 -20.546875 Z M 23.859375 -20.546875"/></g><g id="h"><path d="M 15.125 -20.578125 C 15.320312 -20.890625 15.601562 -21.101562 15.96875 -21.21875 C 16.332031 -21.332031 16.789062 -21.390625 17.34375 -21.390625 C 17.90625 -21.390625 18.347656 -21.335938 18.671875 -21.234375 C 19.003906 -21.140625 19.257812 -21.023438 19.4375 -20.890625 C 19.613281 -20.753906 19.738281 -20.550781 19.8125 -20.28125 C 19.925781 -19.945312 19.984375 -19.441406 19.984375 -18.765625 L 19.984375 -9.96875 C 19.984375 -7.40625 19.1875 -5.070312 17.59375 -2.96875 C 16.820312 -1.976562 15.820312 -1.175781 14.59375 -0.5625 C 13.375 0.0390625 12.019531 0.34375 10.53125 0.34375 C 9.050781 0.34375 7.703125 0.0351562 6.484375 -0.578125 C 5.265625 -1.203125 4.28125 -2.019531 3.53125 -3.03125 C 1.957031 -5.09375 1.171875 -7.425781 1.171875 -10.03125 L 1.171875 -18.796875 C 1.171875 -19.265625 1.179688 -19.609375 1.203125 -19.828125 C 1.234375 -20.054688 1.328125 -20.316406 1.484375 -20.609375 C 1.640625 -20.898438 1.898438 -21.101562 2.265625 -21.21875 C 2.640625 -21.332031 3.132812 -21.390625 3.75 -21.390625 C 4.375 -21.390625 4.867188 -21.332031 5.234375 -21.21875 C 5.609375 -21.101562 5.863281 -20.898438 6 -20.609375 C 6.238281 -20.160156 6.359375 -19.546875 6.359375 -18.765625 L 6.359375 -10.03125 C 6.359375 -8.84375 6.648438 -7.710938 7.234375 -6.640625 C 7.515625 -6.097656 7.945312 -5.660156 8.53125 -5.328125 C 9.113281 -5.003906 9.804688 -4.84375 10.609375 -4.84375 C 12.023438 -4.84375 13.082031 -5.363281 13.78125 -6.40625 C 14.476562 -7.457031 14.828125 -8.671875 14.828125 -10.046875 L 14.828125 -18.96875 C 14.828125 -19.726562 14.925781 -20.265625 15.125 -20.578125 Z M 15.125 -20.578125"/></g><g id="i"><path d="M 1.484375 -3 C 0.984375 -3.625 0.734375 -4.179688 0.734375 -4.671875 C 0.734375 -5.171875 1.148438 -5.828125 1.984375 -6.640625 C 2.460938 -7.109375 2.972656 -7.34375 3.515625 -7.34375 C 4.066406 -7.34375 4.828125 -6.859375 5.796875 -5.890625 C 6.066406 -5.554688 6.453125 -5.238281 6.953125 -4.9375 C 7.460938 -4.632812 7.929688 -4.484375 8.359375 -4.484375 C 10.171875 -4.484375 11.078125 -5.222656 11.078125 -6.703125 C 11.078125 -7.148438 10.828125 -7.523438 10.328125 -7.828125 C 9.835938 -8.128906 9.222656 -8.347656 8.484375 -8.484375 C 7.742188 -8.617188 6.945312 -8.835938 6.09375 -9.140625 C 5.238281 -9.441406 4.441406 -9.796875 3.703125 -10.203125 C 2.960938 -10.609375 2.34375 -11.253906 1.84375 -12.140625 C 1.351562 -13.023438 1.109375 -14.085938 1.109375 -15.328125 C 1.109375 -17.035156 1.742188 -18.523438 3.015625 -19.796875 C 4.285156 -21.066406 6.019531 -21.703125 8.21875 -21.703125 C 9.382812 -21.703125 10.445312 -21.550781 11.40625 -21.25 C 12.363281 -20.957031 13.03125 -20.65625 13.40625 -20.34375 L 14.140625 -19.78125 C 14.734375 -19.21875 15.03125 -18.742188 15.03125 -18.359375 C 15.03125 -17.972656 14.800781 -17.4375 14.34375 -16.75 C 13.675781 -15.78125 12.992188 -15.296875 12.296875 -15.296875 C 11.890625 -15.296875 11.382812 -15.488281 10.78125 -15.875 C 10.71875 -15.914062 10.601562 -16.015625 10.4375 -16.171875 C 10.28125 -16.328125 10.132812 -16.453125 10 -16.546875 C 9.59375 -16.804688 9.070312 -16.9375 8.4375 -16.9375 C 7.800781 -16.9375 7.273438 -16.785156 6.859375 -16.484375 C 6.441406 -16.179688 6.234375 -15.757812 6.234375 -15.21875 C 6.234375 -14.6875 6.476562 -14.253906 6.96875 -13.921875 C 7.46875 -13.597656 8.085938 -13.375 8.828125 -13.25 C 9.566406 -13.132812 10.375 -12.957031 11.25 -12.71875 C 12.125 -12.476562 12.929688 -12.179688 13.671875 -11.828125 C 14.410156 -11.484375 15.023438 -10.878906 15.515625 -10.015625 C 16.015625 -9.148438 16.265625 -8.082031 16.265625 -6.8125 C 16.265625 -5.550781 16.007812 -4.441406 15.5 -3.484375 C 15 -2.523438 14.335938 -1.78125 13.515625 -1.25 C 11.941406 -0.21875 10.265625 0.296875 8.484375 0.296875 C 7.566406 0.296875 6.695312 0.1875 5.875 -0.03125 C 5.0625 -0.257812 4.40625 -0.539062 3.90625 -0.875 C 2.875 -1.5 2.15625 -2.101562 1.75 -2.6875 Z M 1.484375 -3"/></g><g id="j"><path d="M 6.328125 -5.15625 L 15.296875 -5.15625 C 15.742188 -5.15625 16.078125 -5.140625 16.296875 -5.109375 C 16.523438 -5.085938 16.785156 -5 17.078125 -4.84375 C 17.597656 -4.5625 17.859375 -3.800781 17.859375 -2.5625 C 17.859375 -1.207031 17.5 -0.410156 16.78125 -0.171875 C 16.457031 -0.0546875 15.953125 0 15.265625 0 L 3.734375 0 C 2.367188 0 1.570312 -0.367188 1.34375 -1.109375 C 1.226562 -1.421875 1.171875 -1.914062 1.171875 -2.59375 L 1.171875 -18.796875 C 1.171875 -19.785156 1.351562 -20.457031 1.71875 -20.8125 C 2.082031 -21.175781 2.78125 -21.359375 3.8125 -21.359375 L 15.296875 -21.359375 C 15.742188 -21.359375 16.078125 -21.34375 16.296875 -21.3125 C 16.523438 -21.28125 16.785156 -21.191406 17.078125 -21.046875 C 17.597656 -20.765625 17.859375 -20.003906 17.859375 -18.765625 C 17.859375 -17.410156 17.5 -16.613281 16.78125 -16.375 C 16.457031 -16.257812 15.953125 -16.203125 15.265625 -16.203125 L 6.328125 -16.203125 L 6.328125 -13.265625 L 12.09375 -13.265625 C 12.539062 -13.265625 12.875 -13.25 13.09375 -13.21875 C 13.320312 -13.1875 13.582031 -13.09375 13.875 -12.9375 C 14.394531 -12.664062 14.65625 -11.910156 14.65625 -10.671875 C 14.65625 -9.304688 14.285156 -8.507812 13.546875 -8.28125 C 13.222656 -8.15625 12.71875 -8.09375 12.03125 -8.09375 L 6.328125 -8.09375 Z M 6.328125 -5.15625"/></g><g id="k"><path d="M 8.859375 0 L 7.984375 0 L 7.796875 -2.375 L 7.390625 -6.25 L 7.296875 -6.25 L 5.140625 -0.90625 L 4.328125 -0.90625 L 2.28125 -6.25 L 2.171875 -6.25 L 1.765625 -2.453125 L 1.5625 0 L 0.734375 0 L 1.546875 -7.796875 L 2.65625 -7.796875 L 3.0625 -6.609375 L 4.75 -2.171875 L 4.8125 -2.171875 L 6.59375 -6.6875 L 7 -7.796875 L 8.09375 -7.796875 Z M 8.859375 0"/></g><g id="l"><path d="M 6.703125 -3.828125 L 6.6875 -2.953125 C 6.707031 -1.992188 6.457031 -1.25 5.9375 -0.71875 C 5.414062 -0.1875 4.675781 0.078125 3.71875 0.078125 C 2.800781 0.078125 2.097656 -0.175781 1.609375 -0.6875 C 1.117188 -1.195312 0.882812 -1.914062 0.90625 -2.84375 L 0.90625 -7.796875 L 1.859375 -7.796875 L 1.828125 -2.96875 C 1.816406 -2.238281 1.976562 -1.6875 2.3125 -1.3125 C 2.644531 -0.945312 3.140625 -0.765625 3.796875 -0.765625 C 4.453125 -0.765625 4.953125 -0.9375 5.296875 -1.28125 C 5.640625 -1.632812 5.804688 -2.15625 5.796875 -2.84375 L 5.75 -7.796875 L 6.71875 -7.796875 Z M 6.703125 -3.828125"/></g><g id="m"><path d="M 3.25 -7.859375 C 3.8125 -7.859375 4.390625 -7.738281 4.984375 -7.5 L 4.828125 -6.5625 L 4.65625 -6.515625 C 4.425781 -6.691406 4.175781 -6.828125 3.90625 -6.921875 C 3.644531 -7.023438 3.382812 -7.078125 3.125 -7.078125 C 2.820312 -7.078125 2.5625 -7.015625 2.34375 -6.890625 C 2.125 -6.765625 1.953125 -6.601562 1.828125 -6.40625 C 1.710938 -6.21875 1.65625 -6.019531 1.65625 -5.8125 C 1.65625 -5.59375 1.722656 -5.398438 1.859375 -5.234375 C 1.992188 -5.066406 2.160156 -4.921875 2.359375 -4.796875 C 2.566406 -4.671875 2.84375 -4.523438 3.1875 -4.359375 C 3.625 -4.148438 3.976562 -3.957031 4.25 -3.78125 C 4.519531 -3.613281 4.75 -3.394531 4.9375 -3.125 C 5.125 -2.851562 5.21875 -2.53125 5.21875 -2.15625 C 5.21875 -1.75 5.109375 -1.375 4.890625 -1.03125 C 4.671875 -0.6875 4.363281 -0.414062 3.96875 -0.21875 C 3.570312 -0.0195312 3.117188 0.078125 2.609375 0.078125 C 2.265625 0.078125 1.90625 0.0351562 1.53125 -0.046875 C 1.164062 -0.140625 0.828125 -0.28125 0.515625 -0.46875 L 0.640625 -1.453125 L 0.765625 -1.515625 C 1.046875 -1.242188 1.359375 -1.039062 1.703125 -0.90625 C 2.054688 -0.769531 2.390625 -0.703125 2.703125 -0.703125 C 3.015625 -0.703125 3.289062 -0.765625 3.53125 -0.890625 C 3.769531 -1.015625 3.953125 -1.175781 4.078125 -1.375 C 4.203125 -1.582031 4.265625 -1.796875 4.265625 -2.015625 C 4.265625 -2.359375 4.132812 -2.632812 3.875 -2.84375 C 3.613281 -3.050781 3.21875 -3.273438 2.6875 -3.515625 C 2.257812 -3.722656 1.914062 -3.910156 1.65625 -4.078125 C 1.394531 -4.242188 1.171875 -4.457031 0.984375 -4.71875 C 0.796875 -4.988281 0.703125 -5.316406 0.703125 -5.703125 C 0.703125 -6.097656 0.804688 -6.460938 1.015625 -6.796875 C 1.234375 -7.128906 1.535156 -7.390625 1.921875 -7.578125 C 2.304688 -7.765625 2.75 -7.859375 3.25 -7.859375 Z M 3.25 -7.859375"/></g><g id="n"><path d="M 2.0625 -2.4375 L 2.125 0 L 1.125 0 L 1.1875 -2.34375 L 1.125 -7.796875 L 2.125 -7.796875 Z M 2.0625 -2.4375"/></g><g id="o"><path d="M 3.921875 -7.859375 C 4.742188 -7.859375 5.453125 -7.664062 6.046875 -7.28125 L 5.859375 -6.390625 L 5.75 -6.359375 C 5.195312 -6.816406 4.570312 -7.046875 3.875 -7.046875 C 3.101562 -7.046875 2.507812 -6.78125 2.09375 -6.25 C 1.675781 -5.71875 1.46875 -4.941406 1.46875 -3.921875 C 1.46875 -2.890625 1.675781 -2.101562 2.09375 -1.5625 C 2.507812 -1.019531 3.09375 -0.75 3.84375 -0.75 C 4.195312 -0.75 4.550781 -0.8125 4.90625 -0.9375 C 5.257812 -1.0625 5.582031 -1.242188 5.875 -1.484375 L 6 -1.421875 L 5.921875 -0.5 C 5.210938 -0.113281 4.492188 0.078125 3.765625 0.078125 C 2.710938 0.078125 1.898438 -0.257812 1.328125 -0.9375 C 0.753906 -1.613281 0.46875 -2.578125 0.46875 -3.828125 C 0.46875 -5.117188 0.765625 -6.113281 1.359375 -6.8125 C 1.960938 -7.507812 2.816406 -7.859375 3.921875 -7.859375 Z M 3.921875 -7.859375"/></g><g id="q"><path d="M 3.515625 -7.8125 C 4.273438 -7.8125 4.863281 -7.613281 5.28125 -7.21875 C 5.695312 -6.832031 5.90625 -6.269531 5.90625 -5.53125 C 5.90625 -4.65625 5.644531 -3.96875 5.125 -3.46875 C 4.613281 -2.976562 3.90625 -2.734375 3 -2.734375 L 2.0625 -2.734375 L 2.0625 -2.4375 L 2.125 0 L 1.125 0 L 1.1875 -2.34375 L 1.125 -7.796875 Z M 3.359375 -3.53125 C 3.859375 -3.613281 4.238281 -3.816406 4.5 -4.140625 C 4.769531 -4.460938 4.90625 -4.894531 4.90625 -5.4375 C 4.90625 -6.445312 4.367188 -6.972656 3.296875 -7.015625 L 2.125 -6.96875 L 2.078125 -3.546875 Z M 3.359375 -3.53125"/></g><g id="r"><path d="M 5.03125 -0.734375 L 4.9375 0 L 1.09375 0 L 1.15625 -2.34375 L 1.09375 -7.796875 L 2.09375 -7.796875 L 2.03125 -2.4375 L 2.0625 -0.8125 L 4.953125 -0.8125 Z M 5.03125 -0.734375"/></g><g id="s"><path d="M 6.765625 0 L 5.765625 0 L 5.59375 -0.78125 L 5.15625 -2.125 L 3.390625 -2.15625 L 1.8125 -2.125 L 1.34375 -0.828125 L 1.140625 0 L 0.171875 0 L 3.03125 -7.796875 L 4.15625 -7.796875 Z M 4.875 -2.953125 L 3.609375 -6.796875 L 3.53125 -6.796875 L 2.125 -2.953125 L 3.484375 -2.921875 Z M 4.875 -2.953125"/></g><g id="t"><path d="M 3.546875 -2.28125 L 3.578125 0 L 2.609375 0 L 2.671875 -2.28125 L 2.65625 -2.78125 L 0.1875 -7.796875 L 1.234375 -7.796875 L 1.390625 -7.359375 L 3.09375 -3.859375 L 3.171875 -3.859375 L 5.046875 -7.34375 L 5.234375 -7.796875 L 6.25 -7.796875 L 3.5625 -2.828125 Z M 3.546875 -2.28125"/></g><g id="u"><path d="M 5.59375 -0.75 L 5.515625 0 L 1.125 0 L 1.1875 -2.34375 L 1.125 -7.796875 L 5.53125 -7.796875 L 5.578125 -7.703125 L 5.5 -6.953125 L 3.65625 -6.984375 L 2.125 -6.96875 L 2.09375 -4.40625 L 3.546875 -4.375 L 4.84375 -4.421875 L 4.921875 -4.328125 L 4.828125 -3.578125 L 3.46875 -3.609375 L 2.078125 -3.59375 L 2.0625 -2.4375 L 2.109375 -0.8125 L 3.65625 -0.796875 L 5.53125 -0.859375 Z M 5.59375 -0.75"/></g><g id="v"><path d="M 4.3125 -3.15625 C 4.84375 -2.269531 5.515625 -1.296875 6.328125 -0.234375 L 6.3125 -0.109375 C 6.019531 0.00390625 5.722656 0.078125 5.421875 0.109375 L 5.28125 0.03125 C 4.613281 -0.96875 4.019531 -1.941406 3.5 -2.890625 L 2.0625 -2.890625 L 2.0625 -2.4375 L 2.125 0 L 1.125 0 L 1.1875 -2.34375 L 1.125 -7.796875 L 3.515625 -7.8125 C 4.273438 -7.8125 4.863281 -7.617188 5.28125 -7.234375 C 5.707031 -6.847656 5.921875 -6.300781 5.921875 -5.59375 C 5.921875 -5.050781 5.78125 -4.566406 5.5 -4.140625 C 5.21875 -3.710938 4.820312 -3.382812 4.3125 -3.15625 Z M 2.078125 -3.71875 L 3.546875 -3.6875 C 4.453125 -3.945312 4.90625 -4.550781 4.90625 -5.5 C 4.90625 -6 4.769531 -6.367188 4.5 -6.609375 C 4.238281 -6.859375 3.835938 -6.992188 3.296875 -7.015625 L 2.125 -6.96875 Z M 2.078125 -3.71875"/></g><g id="w"><path d="M 7.125 -2.28125 L 7.140625 0 L 6.125 0 L 2.078125 -6.25 L 2.015625 -6.25 L 2.015625 0 L 1.140625 0 L 1.1875 -2.3125 L 1.15625 -7.796875 L 2.171875 -7.796875 L 6.203125 -1.5625 L 6.28125 -1.5625 L 6.265625 -7.75 L 7.1875 -7.828125 Z M 7.125 -2.28125"/></g><g id="x"><path d="M 3.953125 -7.84375 C 5.066406 -7.84375 5.921875 -7.523438 6.515625 -6.890625 C 7.109375 -6.265625 7.40625 -5.359375 7.40625 -4.171875 C 7.40625 -2.804688 7.082031 -1.753906 6.4375 -1.015625 C 5.800781 -0.285156 4.878906 0.078125 3.671875 0.078125 C 3.335938 0.078125 2.929688 0.0664062 2.453125 0.046875 C 1.984375 0.0351562 1.546875 0.0195312 1.140625 0 L 1.125 0 L 1.1875 -2.34375 L 1.125 -7.796875 L 1.140625 -7.796875 Z M 3.828125 -0.75 C 4.660156 -0.75 5.296875 -1.015625 5.734375 -1.546875 C 6.179688 -2.085938 6.40625 -2.894531 6.40625 -3.96875 C 6.40625 -6.007812 5.566406 -7.03125 3.890625 -7.03125 C 3.367188 -7.03125 2.78125 -7.015625 2.125 -6.984375 L 2.0625 -2.4375 L 2.109375 -0.8125 C 2.359375 -0.789062 2.660156 -0.773438 3.015625 -0.765625 C 3.367188 -0.753906 3.640625 -0.75 3.828125 -0.75 Z M 3.828125 -0.75"/></g><g id="y"><path d="M 3.953125 -7.875 C 5.023438 -7.875 5.847656 -7.546875 6.421875 -6.890625 C 6.992188 -6.234375 7.28125 -5.285156 7.28125 -4.046875 C 7.28125 -2.722656 6.972656 -1.703125 6.359375 -0.984375 C 5.753906 -0.265625 4.890625 0.09375 3.765625 0.09375 C 2.703125 0.09375 1.882812 -0.242188 1.3125 -0.921875 C 0.75 -1.609375 0.46875 -2.578125 0.46875 -3.828125 C 0.46875 -5.128906 0.769531 -6.128906 1.375 -6.828125 C 1.976562 -7.523438 2.835938 -7.875 3.953125 -7.875 Z M 3.890625 -7.078125 C 2.265625 -7.078125 1.453125 -6.03125 1.453125 -3.9375 C 1.453125 -2.832031 1.648438 -2.007812 2.046875 -1.46875 C 2.441406 -0.9375 3.035156 -0.671875 3.828125 -0.671875 C 5.453125 -0.671875 6.265625 -1.738281 6.265625 -3.875 C 6.265625 -4.957031 6.066406 -5.757812 5.671875 -6.28125 C 5.285156 -6.8125 4.691406 -7.078125 3.890625 -7.078125 Z M 3.890625 -7.078125"/></g><g id="z"><path d="M 7.96875 0 L 6.96875 0 L 5.4375 -4.53125 L 5.359375 -4.53125 L 3.75 0 L 2.734375 0 L 0.25 -7.796875 L 1.234375 -7.796875 L 1.359375 -7.046875 L 3.265625 -1.078125 L 3.34375 -1.078125 L 5.03125 -5.828125 L 4.375 -7.796875 L 5.375 -7.796875 L 5.546875 -6.96875 L 7.46875 -1.078125 L 7.546875 -1.078125 L 9.671875 -7 L 9.84375 -7.796875 L 10.765625 -7.796875 Z M 7.96875 0"/></g><clipPath id="a"><path d="M 157 133 L 231.265625 133 L 231.265625 200.765625 L 157 200.765625 Z M 157 133"/></clipPath><clipPath id="b"><path d="M 199.132812 133.652344 C 189.578125 133.71875 182.046875 137.90625 177.515625 141.199219 C 178.175781 140.785156 178.859375 140.410156 179.566406 140.082031 C 180.273438 139.75 180.996094 139.46875 181.738281 139.230469 C 182.480469 138.992188 183.234375 138.800781 184.003906 138.65625 C 184.769531 138.511719 185.542969 138.417969 186.320312 138.375 C 187.097656 138.328125 187.875 138.332031 188.652344 138.382812 C 189.433594 138.4375 190.203125 138.539062 190.96875 138.6875 C 191.734375 138.839844 192.488281 139.035156 193.226562 139.28125 C 193.96875 139.527344 194.6875 139.816406 195.390625 140.152344 C 196.097656 140.488281 196.777344 140.867188 197.429688 141.289062 C 198.085938 141.710938 198.714844 142.171875 199.3125 142.675781 C 199.90625 143.175781 200.472656 143.710938 201 144.285156 C 201.53125 144.855469 202.023438 145.460938 202.476562 146.09375 C 202.929688 146.726562 203.339844 147.386719 203.710938 148.074219 C 204.082031 148.761719 204.40625 149.46875 204.6875 150.195312 C 204.96875 150.921875 205.203125 151.664062 205.390625 152.421875 C 205.578125 153.179688 205.714844 153.945312 205.804688 154.71875 C 206.011719 156.496094 205.964844 158.269531 205.667969 160.035156 C 204.761719 164.496094 201.894531 175.546875 192.082031 183.128906 C 182.902344 190.214844 170.261719 192.289062 157.683594 189.183594 C 174.910156 205.035156 201.722656 204.625 218.414062 187.914062 C 221.742188 184.601562 224.460938 180.847656 226.578125 176.65625 C 228.691406 172.460938 230.09375 168.042969 230.785156 163.398438 C 231.417969 159.101562 231.425781 154.800781 230.800781 150.5 C 222.636719 139.914062 211.039062 133.582031 199.132812 133.652344 Z M 199.132812 133.652344"/></clipPath><clipPath id="d"><path d="M 143.515625 113.015625 L 231 113.015625 L 231 191 L 143.515625 191 Z M 143.515625 113.015625"/></clipPath><clipPath id="e"><path d="M 218.414062 125.863281 C 201.277344 108.742188 173.503906 108.742188 156.363281 125.863281 C 142.089844 140.136719 139.707031 161.804688 149.226562 178.546875 C 151.183594 181.992188 153.5625 185.113281 156.363281 187.914062 L 157.683594 189.183594 C 170.261719 192.289062 182.902344 190.214844 192.082031 183.128906 C 201.894531 175.546875 204.761719 164.496094 205.667969 160.035156 C 205.382812 161.695312 204.878906 163.289062 204.160156 164.8125 C 203.441406 166.332031 202.53125 167.730469 201.429688 169.007812 C 200.328125 170.28125 199.078125 171.386719 197.675781 172.320312 C 196.273438 173.253906 194.773438 173.980469 193.171875 174.507812 C 191.570312 175.03125 189.929688 175.332031 188.246094 175.410156 C 186.5625 175.488281 184.902344 175.339844 183.261719 174.960938 C 181.617188 174.585938 180.054688 174 178.574219 173.199219 C 177.09375 172.398438 175.746094 171.414062 174.53125 170.246094 L 174.273438 170.003906 C 173.78125 169.515625 173.320312 168.996094 172.886719 168.457031 C 172.453125 167.914062 172.050781 167.347656 171.679688 166.761719 C 171.308594 166.175781 170.972656 165.566406 170.671875 164.941406 C 170.367188 164.316406 170.101562 163.675781 169.875 163.023438 C 169.644531 162.367188 169.449219 161.699219 169.296875 161.023438 C 169.140625 160.347656 169.023438 159.664062 168.945312 158.972656 C 168.867188 158.28125 168.828125 157.589844 168.828125 156.894531 C 168.828125 156.203125 168.867188 155.507812 168.945312 154.820312 C 169.023438 154.128906 169.136719 153.445312 169.292969 152.769531 C 169.449219 152.09375 169.640625 151.425781 169.867188 150.769531 C 170.097656 150.113281 170.363281 149.476562 170.664062 148.847656 C 170.96875 148.222656 171.304688 147.617188 171.671875 147.03125 C 172.042969 146.441406 172.445312 145.875 172.878906 145.335938 C 173.3125 144.792969 173.773438 144.277344 174.265625 143.785156 C 174.757812 143.292969 175.273438 142.832031 175.820312 142.402344 C 176.363281 141.96875 176.929688 141.570312 177.515625 141.199219 C 182.046875 137.90625 189.578125 133.71875 199.132812 133.652344 C 211.039062 133.582031 222.636719 139.914062 230.800781 150.5 C 230.117188 145.832031 228.71875 141.394531 226.597656 137.179688 C 224.480469 132.96875 221.753906 129.195312 218.414062 125.863281 Z M 218.414062 125.863281"/></clipPath><linearGradient x1="-285.883" gradientTransform="matrix(.1213 -.1213 .1213 .1213 267.377 241.096)" xmlns:xlink="http://www.w3.org/1999/xlink" y1="-601.61" x2="294.298" gradientUnits="userSpaceOnUse" y2="-601.61" xlink:type="simple" xlink:actuate="onLoad" id="c" xlink:show="other"><stop stop-color="#008DFF" offset="0"/><stop stop-color="#008DFF" offset=".063"/><stop stop-color="#008DFF" offset=".078"/><stop stop-color="#008DFF" offset=".086"/><stop stop-color="#028CFE" offset=".09"/><stop stop-color="#028BFE" offset=".094"/><stop stop-color="#038AFD" offset=".098"/><stop stop-color="#048AFD" offset=".102"/><stop stop-color="#0589FD" offset=".105"/><stop stop-color="#0688FC" offset=".109"/><stop stop-color="#0788FC" offset=".113"/><stop stop-color="#0887FB" offset=".117"/><stop stop-color="#0886FB" offset=".121"/><stop stop-color="#0985FB" offset=".125"/><stop stop-color="#0A85FA" offset=".129"/><stop stop-color="#0B84FA" offset=".133"/><stop stop-color="#0C83FA" offset=".137"/><stop stop-color="#0D83F9" offset=".141"/><stop stop-color="#0D82F9" offset=".145"/><stop stop-color="#0E81F8" offset=".148"/><stop stop-color="#0F81F8" offset=".152"/><stop stop-color="#1080F8" offset=".156"/><stop stop-color="#117FF7" offset=".16"/><stop stop-color="#127FF7" offset=".164"/><stop stop-color="#127EF6" offset=".168"/><stop stop-color="#137DF6" offset=".172"/><stop stop-color="#147CF6" offset=".176"/><stop stop-color="#157CF5" offset=".18"/><stop stop-color="#167BF5" offset=".184"/><stop stop-color="#177AF4" offset=".188"/><stop stop-color="#187AF4" offset=".191"/><stop stop-color="#1879F4" offset=".195"/><stop stop-color="#1978F3" offset=".199"/><stop stop-color="#1A78F3" offset=".203"/><stop stop-color="#1B77F2" offset=".207"/><stop stop-color="#1C76F2" offset=".211"/><stop stop-color="#1D76F2" offset=".215"/><stop stop-color="#1D75F1" offset=".219"/><stop stop-color="#1E74F1" offset=".223"/><stop stop-color="#1F74F1" offset=".227"/><stop stop-color="#2073F0" offset=".23"/><stop stop-color="#2172F0" offset=".234"/><stop stop-color="#2271EF" offset=".238"/><stop stop-color="#2271EF" offset=".242"/><stop stop-color="#2370EF" offset=".246"/><stop stop-color="#246FEE" offset=".25"/><stop stop-color="#256FEE" offset=".254"/><stop stop-color="#266EED" offset=".258"/><stop stop-color="#276DED" offset=".262"/><stop stop-color="#286DED" offset=".266"/><stop stop-color="#286CEC" offset=".27"/><stop stop-color="#296BEC" offset=".273"/><stop stop-color="#2A6BEB" offset=".277"/><stop stop-color="#2B6AEB" offset=".281"/><stop stop-color="#2C69EB" offset=".285"/><stop stop-color="#2D68EA" offset=".289"/><stop stop-color="#2D68EA" offset=".293"/><stop stop-color="#2E67E9" offset=".297"/><stop stop-color="#2F66E9" offset=".301"/><stop stop-color="#3066E9" offset=".305"/><stop stop-color="#3165E8" offset=".309"/><stop stop-color="#3264E8" offset=".313"/><stop stop-color="#3264E8" offset=".316"/><stop stop-color="#3363E7" offset=".32"/><stop stop-color="#3462E7" offset=".324"/><stop stop-color="#3562E6" offset=".328"/><stop stop-color="#3661E6" offset=".332"/><stop stop-color="#3760E6" offset=".336"/><stop stop-color="#3860E5" offset=".34"/><stop stop-color="#385FE5" offset=".344"/><stop stop-color="#395EE4" offset=".348"/><stop stop-color="#3A5DE4" offset=".352"/><stop stop-color="#3B5DE4" offset=".355"/><stop stop-color="#3C5CE3" offset=".359"/><stop stop-color="#3D5BE3" offset=".363"/><stop stop-color="#3D5BE2" offset=".367"/><stop stop-color="#3E5AE2" offset=".371"/><stop stop-color="#3F59E2" offset=".375"/><stop stop-color="#4059E1" offset=".379"/><stop stop-color="#4158E1" offset=".383"/><stop stop-color="#4257E0" offset=".387"/><stop stop-color="#4257E0" offset=".391"/><stop stop-color="#4356E0" offset=".395"/><stop stop-color="#4455DF" offset=".398"/><stop stop-color="#4554DF" offset=".402"/><stop stop-color="#4654DF" offset=".406"/><stop stop-color="#4753DE" offset=".41"/><stop stop-color="#4852DE" offset=".414"/><stop stop-color="#4852DD" offset=".418"/><stop stop-color="#4951DD" offset=".422"/><stop stop-color="#4A50DD" offset=".426"/><stop stop-color="#4B50DC" offset=".43"/><stop stop-color="#4C4FDC" offset=".434"/><stop stop-color="#4D4EDB" offset=".438"/><stop stop-color="#4D4EDB" offset=".441"/><stop stop-color="#4E4DDB" offset=".445"/><stop stop-color="#4F4CDA" offset=".449"/><stop stop-color="#504CDA" offset=".453"/><stop stop-color="#514BD9" offset=".457"/><stop stop-color="#524AD9" offset=".461"/><stop stop-color="#5249D9" offset=".465"/><stop stop-color="#5349D8" offset=".469"/><stop stop-color="#5448D8" offset=".473"/><stop stop-color="#5547D7" offset=".477"/><stop stop-color="#5647D7" offset=".48"/><stop stop-color="#5746D7" offset=".484"/><stop stop-color="#5845D6" offset=".488"/><stop stop-color="#5845D6" offset=".492"/><stop stop-color="#5944D5" offset=".496"/><stop stop-color="#5A43D5" offset=".5"/><stop stop-color="#5B43D5" offset=".504"/><stop stop-color="#5C42D4" offset=".508"/><stop stop-color="#5D41D4" offset=".512"/><stop stop-color="#5D40D4" offset=".516"/><stop stop-color="#5E40D3" offset=".52"/><stop stop-color="#5F3FD3" offset=".523"/><stop stop-color="#603ED2" offset=".527"/><stop stop-color="#613ED2" offset=".531"/><stop stop-color="#623DD2" offset=".535"/><stop stop-color="#623CD1" offset=".539"/><stop stop-color="#633CD1" offset=".543"/><stop stop-color="#643BD0" offset=".547"/><stop stop-color="#653AD0" offset=".551"/><stop stop-color="#663AD0" offset=".555"/><stop stop-color="#6739CF" offset=".559"/><stop stop-color="#6838CF" offset=".563"/><stop stop-color="#6837CE" offset=".566"/><stop stop-color="#6937CE" offset=".57"/><stop stop-color="#6A36CE" offset=".574"/><stop stop-color="#6B35CD" offset=".578"/><stop stop-color="#6C35CD" offset=".582"/><stop stop-color="#6D34CC" offset=".586"/><stop stop-color="#6D33CC" offset=".59"/><stop stop-color="#6E33CC" offset=".594"/><stop stop-color="#6F32CB" offset=".598"/><stop stop-color="#7031CB" offset=".602"/><stop stop-color="#7131CB" offset=".605"/><stop stop-color="#7230CA" offset=".609"/><stop stop-color="#722FCA" offset=".613"/><stop stop-color="#732FC9" offset=".617"/><stop stop-color="#742EC9" offset=".621"/><stop stop-color="#752DC9" offset=".625"/><stop stop-color="#762CC8" offset=".629"/><stop stop-color="#772CC8" offset=".633"/><stop stop-color="#782BC7" offset=".637"/><stop stop-color="#782AC7" offset=".641"/><stop stop-color="#792AC7" offset=".645"/><stop stop-color="#7A29C6" offset=".648"/><stop stop-color="#7B28C6" offset=".652"/><stop stop-color="#7C28C5" offset=".656"/><stop stop-color="#7D27C5" offset=".66"/><stop stop-color="#7D26C5" offset=".664"/><stop stop-color="#7E26C4" offset=".668"/><stop stop-color="#7F25C4" offset=".672"/><stop stop-color="#8024C3" offset=".676"/><stop stop-color="#8123C3" offset=".68"/><stop stop-color="#8223C3" offset=".684"/><stop stop-color="#8222C2" offset=".688"/><stop stop-color="#8321C2" offset=".691"/><stop stop-color="#8421C2" offset=".695"/><stop stop-color="#8520C1" offset=".699"/><stop stop-color="#861FC1" offset=".703"/><stop stop-color="#871FC0" offset=".707"/><stop stop-color="#881EC0" offset=".711"/><stop stop-color="#881DC0" offset=".715"/><stop stop-color="#891DBF" offset=".719"/><stop stop-color="#8A1CBF" offset=".723"/><stop stop-color="#8B1BBE" offset=".727"/><stop stop-color="#8C1BBE" offset=".73"/><stop stop-color="#8D1ABE" offset=".734"/><stop stop-color="#8D19BD" offset=".738"/><stop stop-color="#8E18BD" offset=".742"/><stop stop-color="#8F18BC" offset=".746"/><stop stop-color="#9017BC" offset=".75"/><stop stop-color="#9116BC" offset=".754"/><stop stop-color="#9216BB" offset=".758"/><stop stop-color="#9215BB" offset=".762"/><stop stop-color="#9314BA" offset=".766"/><stop stop-color="#9414BA" offset=".77"/><stop stop-color="#9513BA" offset=".773"/><stop stop-color="#9612B9" offset=".777"/><stop stop-color="#9712B9" offset=".781"/><stop stop-color="#9811B8" offset=".785"/><stop stop-color="#9810B8" offset=".789"/><stop stop-color="#990FB8" offset=".793"/><stop stop-color="#9A0FB7" offset=".797"/><stop stop-color="#9B0EB7" offset=".801"/><stop stop-color="#9C0DB7" offset=".805"/><stop stop-color="#9D0DB6" offset=".809"/><stop stop-color="#9D0CB6" offset=".813"/><stop stop-color="#9E0BB5" offset=".816"/><stop stop-color="#9F0BB5" offset=".82"/><stop stop-color="#A00AB5" offset=".824"/><stop stop-color="#A109B4" offset=".828"/><stop stop-color="#A209B4" offset=".832"/><stop stop-color="#A208B3" offset=".836"/><stop stop-color="#A307B3" offset=".84"/><stop stop-color="#A407B3" offset=".844"/><stop stop-color="#A506B2" offset=".848"/><stop stop-color="#A605B2" offset=".852"/><stop stop-color="#A704B1" offset=".855"/><stop stop-color="#A804B1" offset=".859"/><stop stop-color="#A803B1" offset=".863"/><stop stop-color="#A902B0" offset=".867"/><stop stop-color="#AA02B0" offset=".871"/><stop stop-color="#AB01AF" offset=".875"/><stop stop-color="#AC00AF" offset=".879"/><stop stop-color="#AC00AF" offset=".883"/><stop stop-color="#AC00AF" offset=".891"/><stop stop-color="#AC00AF" offset=".906"/><stop stop-color="#AC00AF" offset=".938"/><stop stop-color="#AC00AF" offset="1"/></linearGradient><linearGradient x1="-309.359" gradientTransform="matrix(.1213 -.1213 .1213 .1213 267.377 241.096)" xmlns:xlink="http://www.w3.org/1999/xlink" y1="-728.35" x2="377.171" gradientUnits="userSpaceOnUse" y2="-728.35" xlink:type="simple" xlink:actuate="onLoad" id="f" xlink:show="other"><stop stop-color="#0000B1" offset="0"/><stop stop-color="#0000B1" offset=".063"/><stop stop-color="#0000B1" offset=".094"/><stop stop-color="#0000B1" offset=".102"/><stop stop-color="#0001B1" offset=".105"/><stop stop-color="#0001B1" offset=".109"/><stop stop-color="#0002B2" offset=".113"/><stop stop-color="#0003B2" offset=".117"/><stop stop-color="#0004B2" offset=".121"/><stop stop-color="#0005B3" offset=".125"/><stop stop-color="#0006B3" offset=".129"/><stop stop-color="#0008B4" offset=".133"/><stop stop-color="#0009B4" offset=".137"/><stop stop-color="#000AB4" offset=".141"/><stop stop-color="#000BB5" offset=".145"/><stop stop-color="#000DB5" offset=".148"/><stop stop-color="#000EB6" offset=".152"/><stop stop-color="#000FB6" offset=".156"/><stop stop-color="#0010B7" offset=".16"/><stop stop-color="#0012B7" offset=".164"/><stop stop-color="#0013B7" offset=".168"/><stop stop-color="#0014B8" offset=".172"/><stop stop-color="#0015B8" offset=".176"/><stop stop-color="#0017B9" offset=".18"/><stop stop-color="#0018B9" offset=".184"/><stop stop-color="#0019B9" offset=".188"/><stop stop-color="#001ABA" offset=".191"/><stop stop-color="#001CBA" offset=".195"/><stop stop-color="#001DBB" offset=".199"/><stop stop-color="#001EBB" offset=".203"/><stop stop-color="#001FBC" offset=".207"/><stop stop-color="#0021BC" offset=".211"/><stop stop-color="#0022BC" offset=".215"/><stop stop-color="#0023BD" offset=".219"/><stop stop-color="#0024BD" offset=".223"/><stop stop-color="#0026BE" offset=".227"/><stop stop-color="#0027BE" offset=".23"/><stop stop-color="#0028BF" offset=".234"/><stop stop-color="#0029BF" offset=".238"/><stop stop-color="#002BBF" offset=".242"/><stop stop-color="#002CC0" offset=".246"/><stop stop-color="#002DC0" offset=".25"/><stop stop-color="#002EC1" offset=".254"/><stop stop-color="#0030C1" offset=".258"/><stop stop-color="#0031C1" offset=".262"/><stop stop-color="#0032C2" offset=".266"/><stop stop-color="#0033C2" offset=".27"/><stop stop-color="#0035C3" offset=".273"/><stop stop-color="#0036C3" offset=".277"/><stop stop-color="#0037C4" offset=".281"/><stop stop-color="#0038C4" offset=".285"/><stop stop-color="#003AC4" offset=".289"/><stop stop-color="#003BC5" offset=".293"/><stop stop-color="#003CC5" offset=".297"/><stop stop-color="#003DC6" offset=".301"/><stop stop-color="#003FC6" offset=".305"/><stop stop-color="#0040C7" offset=".309"/><stop stop-color="#0041C7" offset=".313"/><stop stop-color="#0042C7" offset=".316"/><stop stop-color="#0043C8" offset=".32"/><stop stop-color="#0045C8" offset=".324"/><stop stop-color="#0046C9" offset=".328"/><stop stop-color="#0047C9" offset=".332"/><stop stop-color="#0048C9" offset=".336"/><stop stop-color="#0049CA" offset=".34"/><stop stop-color="#004ACA" offset=".344"/><stop stop-color="#004BCA" offset=".348"/><stop stop-color="#004CCB" offset=".352"/><stop stop-color="#004DCB" offset=".355"/><stop stop-color="#004FCC" offset=".359"/><stop stop-color="#0050CC" offset=".363"/><stop stop-color="#0051CC" offset=".367"/><stop stop-color="#0052CD" offset=".371"/><stop stop-color="#0053CD" offset=".375"/><stop stop-color="#0054CE" offset=".379"/><stop stop-color="#0055CE" offset=".383"/><stop stop-color="#0056CE" offset=".387"/><stop stop-color="#0057CF" offset=".391"/><stop stop-color="#0059CF" offset=".395"/><stop stop-color="#005AD0" offset=".398"/><stop stop-color="#005BD0" offset=".402"/><stop stop-color="#005CD0" offset=".406"/><stop stop-color="#005DD1" offset=".41"/><stop stop-color="#005ED1" offset=".414"/><stop stop-color="#005FD1" offset=".418"/><stop stop-color="#0060D2" offset=".422"/><stop stop-color="#0062D2" offset=".426"/><stop stop-color="#0063D3" offset=".43"/><stop stop-color="#0064D3" offset=".434"/><stop stop-color="#0065D3" offset=".438"/><stop stop-color="#0066D4" offset=".441"/><stop stop-color="#0067D4" offset=".445"/><stop stop-color="#0068D5" offset=".449"/><stop stop-color="#0069D5" offset=".453"/><stop stop-color="#006AD5" offset=".457"/><stop stop-color="#006CD6" offset=".461"/><stop stop-color="#006DD6" offset=".465"/><stop stop-color="#006ED7" offset=".469"/><stop stop-color="#006FD7" offset=".473"/><stop stop-color="#0070D7" offset=".477"/><stop stop-color="#0071D8" offset=".48"/><stop stop-color="#0072D8" offset=".484"/><stop stop-color="#0073D8" offset=".488"/><stop stop-color="#0074D9" offset=".492"/><stop stop-color="#0075D9" offset=".496"/><stop stop-color="#0076D9" offset=".5"/><stop stop-color="#0077DA" offset=".504"/><stop stop-color="#0078DA" offset=".508"/><stop stop-color="#0078DA" offset=".512"/><stop stop-color="#0079DA" offset=".516"/><stop stop-color="#007ADB" offset=".52"/><stop stop-color="#007BDB" offset=".523"/><stop stop-color="#007CDB" offset=".527"/><stop stop-color="#007DDC" offset=".531"/><stop stop-color="#007EDC" offset=".535"/><stop stop-color="#007FDC" offset=".539"/><stop stop-color="#0080DD" offset=".543"/><stop stop-color="#0081DD" offset=".547"/><stop stop-color="#0081DD" offset=".551"/><stop stop-color="#0082DD" offset=".555"/><stop stop-color="#0083DE" offset=".559"/><stop stop-color="#0084DE" offset=".563"/><stop stop-color="#0085DE" offset=".566"/><stop stop-color="#0086DF" offset=".57"/><stop stop-color="#0087DF" offset=".574"/><stop stop-color="#0088DF" offset=".578"/><stop stop-color="#0089E0" offset=".582"/><stop stop-color="#008AE0" offset=".586"/><stop stop-color="#008AE0" offset=".59"/><stop stop-color="#008BE0" offset=".594"/><stop stop-color="#008CE1" offset=".598"/><stop stop-color="#008DE1" offset=".602"/><stop stop-color="#008EE1" offset=".605"/><stop stop-color="#008FE2" offset=".609"/><stop stop-color="#0090E2" offset=".613"/><stop stop-color="#0091E2" offset=".617"/><stop stop-color="#0092E3" offset=".621"/><stop stop-color="#0093E3" offset=".625"/><stop stop-color="#0093E3" offset=".629"/><stop stop-color="#0094E3" offset=".633"/><stop stop-color="#0095E4" offset=".637"/><stop stop-color="#0096E4" offset=".641"/><stop stop-color="#0097E4" offset=".645"/><stop stop-color="#0097E4" offset=".648"/><stop stop-color="#0098E5" offset=".652"/><stop stop-color="#0099E5" offset=".656"/><stop stop-color="#0099E5" offset=".66"/><stop stop-color="#009AE5" offset=".664"/><stop stop-color="#009BE6" offset=".668"/><stop stop-color="#009BE6" offset=".672"/><stop stop-color="#009CE6" offset=".676"/><stop stop-color="#009DE6" offset=".68"/><stop stop-color="#009DE6" offset=".684"/><stop stop-color="#009EE7" offset=".688"/><stop stop-color="#009FE7" offset=".691"/><stop stop-color="#009FE7" offset=".695"/><stop stop-color="#00A0E7" offset=".699"/><stop stop-color="#00A1E8" offset=".703"/><stop stop-color="#00A1E8" offset=".707"/><stop stop-color="#00A2E8" offset=".711"/><stop stop-color="#00A2E8" offset=".715"/><stop stop-color="#00A3E8" offset=".719"/><stop stop-color="#00A4E9" offset=".723"/><stop stop-color="#00A4E9" offset=".727"/><stop stop-color="#00A5E9" offset=".73"/><stop stop-color="#00A6E9" offset=".734"/><stop stop-color="#00A6EA" offset=".738"/><stop stop-color="#00A7EA" offset=".742"/><stop stop-color="#00A8EA" offset=".746"/><stop stop-color="#00A8EA" offset=".75"/><stop stop-color="#00A9EA" offset=".754"/><stop stop-color="#00AAEB" offset=".758"/><stop stop-color="#00AAEB" offset=".762"/><stop stop-color="#00ABEB" offset=".766"/><stop stop-color="#00ABEB" offset=".773"/><stop stop-color="#00ACEB" offset=".781"/><stop stop-color="#00ADEC" offset=".789"/><stop stop-color="#00AEEC" offset=".797"/><stop stop-color="#00AEEC" offset=".805"/><stop stop-color="#00AFED" offset=".813"/><stop stop-color="#00B0ED" offset=".82"/><stop stop-color="#00B1ED" offset=".828"/><stop stop-color="#00B1ED" offset=".836"/><stop stop-color="#00B2EE" offset=".844"/><stop stop-color="#00B3EE" offset=".875"/><stop stop-color="#00B3EE" offset="1"/></linearGradient></defs><g clip-path="url(#a)"><g clip-path="url(#b)"><path fill="url(#c)" d="M 124.09375 167.171875 L 194.476562 237.554688 L 264.855469 167.171875 L 194.476562 96.792969 Z M 124.09375 167.171875"/></g></g><g clip-path="url(#d)"><g clip-path="url(#e)"><path fill="url(#f)" d="M 103.878906 152.652344 L 187.160156 235.933594 L 270.4375 152.652344 L 187.160156 69.371094 Z M 103.878906 152.652344"/></g></g><g fill="#0053C2"><use x="142.242" y="236.209" xmlns:xlink="http://www.w3.org/1999/xlink" xlink:href="#g" xlink:type="simple" xlink:actuate="onLoad" xlink:show="embed"/></g><g fill="#0053C2"><use x="170.396" y="236.209" xmlns:xlink="http://www.w3.org/1999/xlink" xlink:href="#h" xlink:type="simple" xlink:actuate="onLoad" xlink:show="embed"/></g><g fill="#0053C2"><use x="194.353" y="236.209" xmlns:xlink="http://www.w3.org/1999/xlink" xlink:href="#i" xlink:type="simple" xlink:actuate="onLoad" xlink:show="embed"/></g><g fill="#0053C2"><use x="214.143" y="236.209" xmlns:xlink="http://www.w3.org/1999/xlink" xlink:href="#j" xlink:type="simple" xlink:actuate="onLoad" xlink:show="embed"/></g><g fill="#8E17EB"><use x="61.758" y="262.466" xmlns:xlink="http://www.w3.org/1999/xlink" xlink:href="#k" xlink:type="simple" xlink:actuate="onLoad" xlink:show="embed"/></g><g fill="#8E17EB"><use x="74.326" y="262.466" xmlns:xlink="http://www.w3.org/1999/xlink" xlink:href="#l" xlink:type="simple" xlink:actuate="onLoad" xlink:show="embed"/></g><g fill="#8E17EB"><use x="84.912" y="262.466" xmlns:xlink="http://www.w3.org/1999/xlink" xlink:href="#m" xlink:type="simple" xlink:actuate="onLoad" xlink:show="embed"/></g><g fill="#8E17EB"><use x="93.624" y="262.466" xmlns:xlink="http://www.w3.org/1999/xlink" xlink:href="#n" xlink:type="simple" xlink:actuate="onLoad" xlink:show="embed"/></g><g fill="#8E17EB"><use x="99.854" y="262.466" xmlns:xlink="http://www.w3.org/1999/xlink" xlink:href="#o" xlink:type="simple" xlink:actuate="onLoad" xlink:show="embed"/></g><g fill="#8E17EB"><use x="109.15" y="262.466" xmlns:xlink="http://www.w3.org/1999/xlink" xlink:href="#p" xlink:type="simple" xlink:actuate="onLoad" xlink:show="embed"/></g><g fill="#8E17EB"><use x="114.127" y="262.466" xmlns:xlink="http://www.w3.org/1999/xlink" xlink:href="#q" xlink:type="simple" xlink:actuate="onLoad" xlink:show="embed"/></g><g fill="#8E17EB"><use x="123.423" y="262.466" xmlns:xlink="http://www.w3.org/1999/xlink" xlink:href="#r" xlink:type="simple" xlink:actuate="onLoad" xlink:show="embed"/></g><g fill="#8E17EB"><use x="131.454" y="262.466" xmlns:xlink="http://www.w3.org/1999/xlink" xlink:href="#s" xlink:type="simple" xlink:actuate="onLoad" xlink:show="embed"/></g><g fill="#8E17EB"><use x="141.455" y="262.466" xmlns:xlink="http://www.w3.org/1999/xlink" xlink:href="#t" xlink:type="simple" xlink:actuate="onLoad" xlink:show="embed"/></g><g fill="#8E17EB"><use x="150.848" y="262.466" xmlns:xlink="http://www.w3.org/1999/xlink" xlink:href="#u" xlink:type="simple" xlink:actuate="onLoad" xlink:show="embed"/></g><g fill="#8E17EB"><use x="159.682" y="262.466" xmlns:xlink="http://www.w3.org/1999/xlink" xlink:href="#v" xlink:type="simple" xlink:actuate="onLoad" xlink:show="embed"/></g><g fill="#8E17EB"><use x="169.404" y="262.466" xmlns:xlink="http://www.w3.org/1999/xlink" xlink:href="#p" xlink:type="simple" xlink:actuate="onLoad" xlink:show="embed"/></g><g fill="#8E17EB"><use x="174.381" y="262.466" xmlns:xlink="http://www.w3.org/1999/xlink" xlink:href="#s" xlink:type="simple" xlink:actuate="onLoad" xlink:show="embed"/></g><g fill="#8E17EB"><use x="184.383" y="262.466" xmlns:xlink="http://www.w3.org/1999/xlink" xlink:href="#w" xlink:type="simple" xlink:actuate="onLoad" xlink:show="embed"/></g><g fill="#8E17EB"><use x="195.661" y="262.466" xmlns:xlink="http://www.w3.org/1999/xlink" xlink:href="#x" xlink:type="simple" xlink:actuate="onLoad" xlink:show="embed"/></g><g fill="#8E17EB"><use x="206.49" y="262.466" xmlns:xlink="http://www.w3.org/1999/xlink" xlink:href="#p" xlink:type="simple" xlink:actuate="onLoad" xlink:show="embed"/></g><g fill="#8E17EB"><use x="211.467" y="262.466" xmlns:xlink="http://www.w3.org/1999/xlink" xlink:href="#x" xlink:type="simple" xlink:actuate="onLoad" xlink:show="embed"/></g><g fill="#8E17EB"><use x="222.296" y="262.466" xmlns:xlink="http://www.w3.org/1999/xlink" xlink:href="#y" xlink:type="simple" xlink:actuate="onLoad" xlink:show="embed"/></g><g fill="#8E17EB"><use x="232.99" y="262.466" xmlns:xlink="http://www.w3.org/1999/xlink" xlink:href="#z" xlink:type="simple" xlink:actuate="onLoad" xlink:show="embed"/></g><g fill="#8E17EB"><use x="246.823" y="262.466" xmlns:xlink="http://www.w3.org/1999/xlink" xlink:href="#w" xlink:type="simple" xlink:actuate="onLoad" xlink:show="embed"/></g><g fill="#8E17EB"><use x="258.102" y="262.466" xmlns:xlink="http://www.w3.org/1999/xlink" xlink:href="#r" xlink:type="simple" xlink:actuate="onLoad" xlink:show="embed"/></g><g fill="#8E17EB"><use x="266.133" y="262.466" xmlns:xlink="http://www.w3.org/1999/xlink" xlink:href="#y" xlink:type="simple" xlink:actuate="onLoad" xlink:show="embed"/></g><g fill="#8E17EB"><use x="276.827" y="262.466" xmlns:xlink="http://www.w3.org/1999/xlink" xlink:href="#s" xlink:type="simple" xlink:actuate="onLoad" xlink:show="embed"/></g><g fill="#8E17EB"><use x="286.829" y="262.466" xmlns:xlink="http://www.w3.org/1999/xlink" xlink:href="#x" xlink:type="simple" xlink:actuate="onLoad" xlink:show="embed"/></g><g fill="#8E17EB"><use x="297.657" y="262.466" xmlns:xlink="http://www.w3.org/1999/xlink" xlink:href="#u" xlink:type="simple" xlink:actuate="onLoad" xlink:show="embed"/></g><g fill="#8E17EB"><use x="306.491" y="262.466" xmlns:xlink="http://www.w3.org/1999/xlink" xlink:href="#v" xlink:type="simple" xlink:actuate="onLoad" xlink:show="embed"/></g></svg>