<svg xmlns="http://www.w3.org/2000/svg" xmlns:xlink="http://www.w3.org/1999/xlink" width="375" viewBox="0 0 375 375" height="375" version="1.0"><defs><clipPath id="a"><path d="M 104 122 L 310.375 122 L 310.375 310.375 L 104 310.375 Z M 104 122"/></clipPath><clipPath id="b"><path d="M 220.296875 122.230469 C 193.507812 122.425781 172.394531 134.160156 159.699219 143.394531 C 160.621094 142.8125 161.5625 142.257812 162.519531 141.734375 C 163.476562 141.210938 164.453125 140.71875 165.441406 140.257812 C 166.429688 139.796875 167.433594 139.363281 168.449219 138.964844 C 169.464844 138.566406 170.496094 138.203125 171.535156 137.867188 C 172.574219 137.535156 173.621094 137.234375 174.679688 136.964844 C 175.738281 136.699219 176.804688 136.464844 177.878906 136.261719 C 178.953125 136.0625 180.03125 135.894531 181.113281 135.765625 C 182.199219 135.632812 183.285156 135.535156 184.375 135.46875 C 185.464844 135.40625 186.554688 135.375 187.648438 135.382812 C 188.738281 135.386719 189.832031 135.425781 190.917969 135.5 C 192.007812 135.574219 193.09375 135.679688 194.175781 135.824219 C 195.261719 135.964844 196.335938 136.140625 197.410156 136.351562 C 198.480469 136.5625 199.542969 136.804688 200.597656 137.082031 C 201.65625 137.359375 202.703125 137.667969 203.738281 138.011719 C 204.773438 138.355469 205.800781 138.730469 206.8125 139.140625 C 207.824219 139.546875 208.824219 139.984375 209.808594 140.457031 C 210.792969 140.925781 211.765625 141.429688 212.71875 141.960938 C 213.671875 142.492188 214.605469 143.054688 215.523438 143.644531 C 216.441406 144.234375 217.339844 144.855469 218.21875 145.503906 C 219.101562 146.148438 219.957031 146.824219 220.792969 147.527344 C 221.628906 148.226562 222.445312 148.957031 223.234375 149.707031 C 224.023438 150.460938 224.792969 151.238281 225.535156 152.039062 C 226.273438 152.839844 226.992188 153.664062 227.679688 154.511719 C 228.371094 155.359375 229.03125 156.226562 229.667969 157.113281 C 230.300781 158 230.910156 158.910156 231.488281 159.835938 C 232.0625 160.761719 232.613281 161.707031 233.128906 162.667969 C 233.648438 163.628906 234.136719 164.601562 234.59375 165.59375 C 235.050781 166.585938 235.476562 167.59375 235.867188 168.609375 C 236.261719 169.628906 236.621094 170.660156 236.949219 171.699219 C 237.277344 172.742188 237.574219 173.792969 237.835938 174.851562 C 238.097656 175.910156 238.328125 176.980469 238.523438 178.054688 C 238.714844 179.128906 238.878906 180.207031 239.003906 181.292969 C 239.578125 186.28125 239.449219 191.25 238.621094 196.199219 C 236.070312 208.703125 228.039062 239.675781 200.527344 260.933594 C 174.800781 280.796875 139.355469 286.617188 104.101562 277.910156 C 152.386719 322.351562 227.558594 321.195312 274.351562 274.351562 C 278.984375 269.738281 283.21875 264.78125 287.058594 259.488281 C 290.898438 254.191406 294.289062 248.625 297.234375 242.785156 C 300.179688 236.949219 302.640625 230.914062 304.621094 224.679688 C 306.597656 218.445312 308.070312 212.09375 309.027344 205.628906 C 310.808594 193.574219 310.824219 181.519531 309.078125 169.460938 C 286.183594 139.785156 253.671875 122.039062 220.296875 122.230469 Z M 220.296875 122.230469"/></clipPath><clipPath id="d"><path d="M 64.375 64.375 L 310 64.375 L 310 282 L 64.375 282 Z M 64.375 64.375"/></clipPath><clipPath id="e"><path d="M 274.351562 100.398438 C 226.308594 52.398438 148.445312 52.398438 100.398438 100.398438 C 60.382812 140.410156 53.699219 201.15625 80.390625 248.09375 C 85.878906 257.746094 92.546875 266.5 100.398438 274.351562 L 104.101562 277.910156 C 139.355469 286.617188 174.800781 280.796875 200.527344 260.933594 C 228.039062 239.675781 236.070312 208.703125 238.621094 196.199219 C 238.21875 198.515625 237.664062 200.792969 236.957031 203.035156 C 236.25 205.277344 235.394531 207.457031 234.386719 209.582031 C 233.382812 211.707031 232.242188 213.753906 230.957031 215.726562 C 229.675781 217.695312 228.269531 219.566406 226.730469 221.347656 C 225.195312 223.125 223.546875 224.792969 221.785156 226.347656 C 220.023438 227.902344 218.164062 229.332031 216.207031 230.632812 C 214.25 231.9375 212.214844 233.101562 210.101562 234.128906 C 207.988281 235.152344 205.816406 236.035156 203.582031 236.765625 C 201.347656 237.496094 199.078125 238.074219 196.765625 238.5 C 194.453125 238.921875 192.125 239.191406 189.777344 239.296875 C 187.429688 239.40625 185.085938 239.355469 182.746094 239.144531 C 180.402344 238.933594 178.085938 238.566406 175.796875 238.042969 C 173.507812 237.519531 171.261719 236.84375 169.0625 236.015625 C 166.863281 235.1875 164.730469 234.214844 162.660156 233.097656 C 160.59375 231.980469 158.613281 230.726562 156.714844 229.339844 C 154.816406 227.953125 153.023438 226.445312 151.328125 224.816406 L 150.609375 224.144531 C 149.917969 223.457031 149.25 222.75 148.601562 222.027344 C 147.949219 221.304688 147.320312 220.5625 146.714844 219.800781 C 146.105469 219.042969 145.519531 218.265625 144.957031 217.476562 C 144.394531 216.683594 143.851562 215.875 143.332031 215.050781 C 142.8125 214.230469 142.320312 213.390625 141.847656 212.542969 C 141.375 211.691406 140.929688 210.828125 140.503906 209.953125 C 140.082031 209.078125 139.683594 208.191406 139.3125 207.292969 C 138.9375 206.394531 138.589844 205.484375 138.269531 204.566406 C 137.945312 203.648438 137.648438 202.722656 137.378906 201.789062 C 137.109375 200.855469 136.867188 199.914062 136.648438 198.964844 C 136.433594 198.019531 136.242188 197.066406 136.078125 196.105469 C 135.914062 195.148438 135.777344 194.183594 135.667969 193.21875 C 135.558594 192.25 135.476562 191.28125 135.421875 190.3125 C 135.367188 189.339844 135.339844 188.371094 135.339844 187.398438 C 135.339844 186.425781 135.367188 185.453125 135.417969 184.480469 C 135.472656 183.511719 135.554688 182.542969 135.664062 181.574219 C 135.773438 180.609375 135.910156 179.644531 136.070312 178.6875 C 136.234375 177.726562 136.425781 176.773438 136.640625 175.824219 C 136.859375 174.878906 137.101562 173.9375 137.371094 173.003906 C 137.640625 172.066406 137.933594 171.140625 138.257812 170.222656 C 138.578125 169.304688 138.925781 168.398438 139.296875 167.5 C 139.671875 166.601562 140.066406 165.714844 140.492188 164.835938 C 140.914062 163.960938 141.359375 163.097656 141.832031 162.246094 C 142.300781 161.394531 142.796875 160.558594 143.316406 159.734375 C 143.832031 158.914062 144.375 158.105469 144.9375 157.3125 C 145.5 156.519531 146.085938 155.742188 146.691406 154.984375 C 147.300781 154.222656 147.929688 153.480469 148.578125 152.757812 C 149.226562 152.03125 149.894531 151.328125 150.582031 150.640625 C 151.273438 149.953125 151.980469 149.285156 152.707031 148.640625 C 153.429688 147.992188 154.175781 147.367188 154.9375 146.761719 C 155.699219 146.15625 156.476562 145.570312 157.269531 145.011719 C 158.0625 144.449219 158.871094 143.910156 159.699219 143.394531 C 172.394531 134.160156 193.507812 122.425781 220.296875 122.230469 C 253.671875 122.039062 286.183594 139.785156 309.078125 169.460938 C 308.125 162.960938 306.660156 156.582031 304.683594 150.320312 C 302.707031 144.054688 300.242188 137.992188 297.292969 132.125 C 294.34375 126.257812 290.945312 120.660156 287.097656 115.339844 C 283.25 110.019531 279 105.039062 274.351562 100.398438 Z M 274.351562 100.398438"/></clipPath><linearGradient x1="-285.883" gradientTransform="rotate(-45 716.95 -285.137) scale(.48094)" xmlns:xlink="http://www.w3.org/1999/xlink" y1="-601.61" x2="294.298" gradientUnits="userSpaceOnUse" y2="-601.61" xlink:type="simple" xlink:actuate="onLoad" id="c" xlink:show="other"><stop stop-color="#008DFF" offset="0"/><stop stop-color="#008DFF" offset=".063"/><stop stop-color="#008DFF" offset=".078"/><stop stop-color="#008DFF" offset=".086"/><stop stop-color="#028CFE" offset=".09"/><stop stop-color="#028BFE" offset=".094"/><stop stop-color="#038AFD" offset=".098"/><stop stop-color="#048AFD" offset=".102"/><stop stop-color="#0589FD" offset=".105"/><stop stop-color="#0688FC" offset=".109"/><stop stop-color="#0788FC" offset=".113"/><stop stop-color="#0887FB" offset=".117"/><stop stop-color="#0886FB" offset=".121"/><stop stop-color="#0985FB" offset=".125"/><stop stop-color="#0A85FA" offset=".129"/><stop stop-color="#0B84FA" offset=".133"/><stop stop-color="#0C83FA" offset=".137"/><stop stop-color="#0D83F9" offset=".141"/><stop stop-color="#0D82F9" offset=".145"/><stop stop-color="#0E81F8" offset=".148"/><stop stop-color="#0F81F8" offset=".152"/><stop stop-color="#1080F8" offset=".156"/><stop stop-color="#117FF7" offset=".16"/><stop stop-color="#127FF7" offset=".164"/><stop stop-color="#127EF6" offset=".168"/><stop stop-color="#137DF6" offset=".172"/><stop stop-color="#147CF6" offset=".176"/><stop stop-color="#157CF5" offset=".18"/><stop stop-color="#167BF5" offset=".184"/><stop stop-color="#177AF4" offset=".188"/><stop stop-color="#187AF4" offset=".191"/><stop stop-color="#1879F4" offset=".195"/><stop stop-color="#1978F3" offset=".199"/><stop stop-color="#1A78F3" offset=".203"/><stop stop-color="#1B77F2" offset=".207"/><stop stop-color="#1C76F2" offset=".211"/><stop stop-color="#1D76F2" offset=".215"/><stop stop-color="#1D75F1" offset=".219"/><stop stop-color="#1E74F1" offset=".223"/><stop stop-color="#1F74F1" offset=".227"/><stop stop-color="#2073F0" offset=".23"/><stop stop-color="#2172F0" offset=".234"/><stop stop-color="#2271EF" offset=".238"/><stop stop-color="#2271EF" offset=".242"/><stop stop-color="#2370EF" offset=".246"/><stop stop-color="#246FEE" offset=".25"/><stop stop-color="#256FEE" offset=".254"/><stop stop-color="#266EED" offset=".258"/><stop stop-color="#276DED" offset=".262"/><stop stop-color="#286DED" offset=".266"/><stop stop-color="#286CEC" offset=".27"/><stop stop-color="#296BEC" offset=".273"/><stop stop-color="#2A6BEB" offset=".277"/><stop stop-color="#2B6AEB" offset=".281"/><stop stop-color="#2C69EB" offset=".285"/><stop stop-color="#2D68EA" offset=".289"/><stop stop-color="#2D68EA" offset=".293"/><stop stop-color="#2E67E9" offset=".297"/><stop stop-color="#2F66E9" offset=".301"/><stop stop-color="#3066E9" offset=".305"/><stop stop-color="#3165E8" offset=".309"/><stop stop-color="#3264E8" offset=".313"/><stop stop-color="#3264E8" offset=".316"/><stop stop-color="#3363E7" offset=".32"/><stop stop-color="#3462E7" offset=".324"/><stop stop-color="#3562E6" offset=".328"/><stop stop-color="#3661E6" offset=".332"/><stop stop-color="#3760E6" offset=".336"/><stop stop-color="#3860E5" offset=".34"/><stop stop-color="#385FE5" offset=".344"/><stop stop-color="#395EE4" offset=".348"/><stop stop-color="#3A5DE4" offset=".352"/><stop stop-color="#3B5DE4" offset=".355"/><stop stop-color="#3C5CE3" offset=".359"/><stop stop-color="#3D5BE3" offset=".363"/><stop stop-color="#3D5BE2" offset=".367"/><stop stop-color="#3E5AE2" offset=".371"/><stop stop-color="#3F59E2" offset=".375"/><stop stop-color="#4059E1" offset=".379"/><stop stop-color="#4158E1" offset=".383"/><stop stop-color="#4257E0" offset=".387"/><stop stop-color="#4257E0" offset=".391"/><stop stop-color="#4356E0" offset=".395"/><stop stop-color="#4455DF" offset=".398"/><stop stop-color="#4554DF" offset=".402"/><stop stop-color="#4654DF" offset=".406"/><stop stop-color="#4753DE" offset=".41"/><stop stop-color="#4852DE" offset=".414"/><stop stop-color="#4852DD" offset=".418"/><stop stop-color="#4951DD" offset=".422"/><stop stop-color="#4A50DD" offset=".426"/><stop stop-color="#4B50DC" offset=".43"/><stop stop-color="#4C4FDC" offset=".434"/><stop stop-color="#4D4EDB" offset=".438"/><stop stop-color="#4D4EDB" offset=".441"/><stop stop-color="#4E4DDB" offset=".445"/><stop stop-color="#4F4CDA" offset=".449"/><stop stop-color="#504CDA" offset=".453"/><stop stop-color="#514BD9" offset=".457"/><stop stop-color="#524AD9" offset=".461"/><stop stop-color="#5249D9" offset=".465"/><stop stop-color="#5349D8" offset=".469"/><stop stop-color="#5448D8" offset=".473"/><stop stop-color="#5547D7" offset=".477"/><stop stop-color="#5647D7" offset=".48"/><stop stop-color="#5746D7" offset=".484"/><stop stop-color="#5845D6" offset=".488"/><stop stop-color="#5845D6" offset=".492"/><stop stop-color="#5944D5" offset=".496"/><stop stop-color="#5A43D5" offset=".5"/><stop stop-color="#5B43D5" offset=".504"/><stop stop-color="#5C42D4" offset=".508"/><stop stop-color="#5D41D4" offset=".512"/><stop stop-color="#5D40D4" offset=".516"/><stop stop-color="#5E40D3" offset=".52"/><stop stop-color="#5F3FD3" offset=".523"/><stop stop-color="#603ED2" offset=".527"/><stop stop-color="#613ED2" offset=".531"/><stop stop-color="#623DD2" offset=".535"/><stop stop-color="#623CD1" offset=".539"/><stop stop-color="#633CD1" offset=".543"/><stop stop-color="#643BD0" offset=".547"/><stop stop-color="#653AD0" offset=".551"/><stop stop-color="#663AD0" offset=".555"/><stop stop-color="#6739CF" offset=".559"/><stop stop-color="#6838CF" offset=".563"/><stop stop-color="#6837CE" offset=".566"/><stop stop-color="#6937CE" offset=".57"/><stop stop-color="#6A36CE" offset=".574"/><stop stop-color="#6B35CD" offset=".578"/><stop stop-color="#6C35CD" offset=".582"/><stop stop-color="#6D34CC" offset=".586"/><stop stop-color="#6D33CC" offset=".59"/><stop stop-color="#6E33CC" offset=".594"/><stop stop-color="#6F32CB" offset=".598"/><stop stop-color="#7031CB" offset=".602"/><stop stop-color="#7131CB" offset=".605"/><stop stop-color="#7230CA" offset=".609"/><stop stop-color="#722FCA" offset=".613"/><stop stop-color="#732FC9" offset=".617"/><stop stop-color="#742EC9" offset=".621"/><stop stop-color="#752DC9" offset=".625"/><stop stop-color="#762CC8" offset=".629"/><stop stop-color="#772CC8" offset=".633"/><stop stop-color="#782BC7" offset=".637"/><stop stop-color="#782AC7" offset=".641"/><stop stop-color="#792AC7" offset=".645"/><stop stop-color="#7A29C6" offset=".648"/><stop stop-color="#7B28C6" offset=".652"/><stop stop-color="#7C28C5" offset=".656"/><stop stop-color="#7D27C5" offset=".66"/><stop stop-color="#7D26C5" offset=".664"/><stop stop-color="#7E26C4" offset=".668"/><stop stop-color="#7F25C4" offset=".672"/><stop stop-color="#8024C3" offset=".676"/><stop stop-color="#8123C3" offset=".68"/><stop stop-color="#8223C3" offset=".684"/><stop stop-color="#8222C2" offset=".688"/><stop stop-color="#8321C2" offset=".691"/><stop stop-color="#8421C2" offset=".695"/><stop stop-color="#8520C1" offset=".699"/><stop stop-color="#861FC1" offset=".703"/><stop stop-color="#871FC0" offset=".707"/><stop stop-color="#881EC0" offset=".711"/><stop stop-color="#881DC0" offset=".715"/><stop stop-color="#891DBF" offset=".719"/><stop stop-color="#8A1CBF" offset=".723"/><stop stop-color="#8B1BBE" offset=".727"/><stop stop-color="#8C1BBE" offset=".73"/><stop stop-color="#8D1ABE" offset=".734"/><stop stop-color="#8D19BD" offset=".738"/><stop stop-color="#8E18BD" offset=".742"/><stop stop-color="#8F18BC" offset=".746"/><stop stop-color="#9017BC" offset=".75"/><stop stop-color="#9116BC" offset=".754"/><stop stop-color="#9216BB" offset=".758"/><stop stop-color="#9215BB" offset=".762"/><stop stop-color="#9314BA" offset=".766"/><stop stop-color="#9414BA" offset=".77"/><stop stop-color="#9513BA" offset=".773"/><stop stop-color="#9612B9" offset=".777"/><stop stop-color="#9712B9" offset=".781"/><stop stop-color="#9811B8" offset=".785"/><stop stop-color="#9810B8" offset=".789"/><stop stop-color="#990FB8" offset=".793"/><stop stop-color="#9A0FB7" offset=".797"/><stop stop-color="#9B0EB7" offset=".801"/><stop stop-color="#9C0DB7" offset=".805"/><stop stop-color="#9D0DB6" offset=".809"/><stop stop-color="#9D0CB6" offset=".813"/><stop stop-color="#9E0BB5" offset=".816"/><stop stop-color="#9F0BB5" offset=".82"/><stop stop-color="#A00AB5" offset=".824"/><stop stop-color="#A109B4" offset=".828"/><stop stop-color="#A209B4" offset=".832"/><stop stop-color="#A208B3" offset=".836"/><stop stop-color="#A307B3" offset=".84"/><stop stop-color="#A407B3" offset=".844"/><stop stop-color="#A506B2" offset=".848"/><stop stop-color="#A605B2" offset=".852"/><stop stop-color="#A704B1" offset=".855"/><stop stop-color="#A804B1" offset=".859"/><stop stop-color="#A803B1" offset=".863"/><stop stop-color="#A902B0" offset=".867"/><stop stop-color="#AA02B0" offset=".871"/><stop stop-color="#AB01AF" offset=".875"/><stop stop-color="#AC00AF" offset=".879"/><stop stop-color="#AC00AF" offset=".883"/><stop stop-color="#AC00AF" offset=".891"/><stop stop-color="#AC00AF" offset=".906"/><stop stop-color="#AC00AF" offset=".938"/><stop stop-color="#AC00AF" offset="1"/></linearGradient><linearGradient x1="-309.359" gradientTransform="rotate(-45 716.95 -285.137) scale(.48094)" xmlns:xlink="http://www.w3.org/1999/xlink" y1="-728.35" x2="377.171" gradientUnits="userSpaceOnUse" y2="-728.35" xlink:type="simple" xlink:actuate="onLoad" id="f" xlink:show="other"><stop stop-color="#0000B1" offset="0"/><stop stop-color="#0000B1" offset=".063"/><stop stop-color="#0000B1" offset=".094"/><stop stop-color="#0000B1" offset=".102"/><stop stop-color="#0001B1" offset=".105"/><stop stop-color="#0001B1" offset=".109"/><stop stop-color="#0002B2" offset=".113"/><stop stop-color="#0003B2" offset=".117"/><stop stop-color="#0004B2" offset=".121"/><stop stop-color="#0005B3" offset=".125"/><stop stop-color="#0006B3" offset=".129"/><stop stop-color="#0008B4" offset=".133"/><stop stop-color="#0009B4" offset=".137"/><stop stop-color="#000AB4" offset=".141"/><stop stop-color="#000BB5" offset=".145"/><stop stop-color="#000DB5" offset=".148"/><stop stop-color="#000EB6" offset=".152"/><stop stop-color="#000FB6" offset=".156"/><stop stop-color="#0010B7" offset=".16"/><stop stop-color="#0012B7" offset=".164"/><stop stop-color="#0013B7" offset=".168"/><stop stop-color="#0014B8" offset=".172"/><stop stop-color="#0015B8" offset=".176"/><stop stop-color="#0017B9" offset=".18"/><stop stop-color="#0018B9" offset=".184"/><stop stop-color="#0019B9" offset=".188"/><stop stop-color="#001ABA" offset=".191"/><stop stop-color="#001CBA" offset=".195"/><stop stop-color="#001DBB" offset=".199"/><stop stop-color="#001EBB" offset=".203"/><stop stop-color="#001FBC" offset=".207"/><stop stop-color="#0021BC" offset=".211"/><stop stop-color="#0022BC" offset=".215"/><stop stop-color="#0023BD" offset=".219"/><stop stop-color="#0024BD" offset=".223"/><stop stop-color="#0026BE" offset=".227"/><stop stop-color="#0027BE" offset=".23"/><stop stop-color="#0028BF" offset=".234"/><stop stop-color="#0029BF" offset=".238"/><stop stop-color="#002BBF" offset=".242"/><stop stop-color="#002CC0" offset=".246"/><stop stop-color="#002DC0" offset=".25"/><stop stop-color="#002EC1" offset=".254"/><stop stop-color="#0030C1" offset=".258"/><stop stop-color="#0031C1" offset=".262"/><stop stop-color="#0032C2" offset=".266"/><stop stop-color="#0033C2" offset=".27"/><stop stop-color="#0035C3" offset=".273"/><stop stop-color="#0036C3" offset=".277"/><stop stop-color="#0037C4" offset=".281"/><stop stop-color="#0038C4" offset=".285"/><stop stop-color="#003AC4" offset=".289"/><stop stop-color="#003BC5" offset=".293"/><stop stop-color="#003CC5" offset=".297"/><stop stop-color="#003DC6" offset=".301"/><stop stop-color="#003FC6" offset=".305"/><stop stop-color="#0040C7" offset=".309"/><stop stop-color="#0041C7" offset=".313"/><stop stop-color="#0042C7" offset=".316"/><stop stop-color="#0043C8" offset=".32"/><stop stop-color="#0045C8" offset=".324"/><stop stop-color="#0046C9" offset=".328"/><stop stop-color="#0047C9" offset=".332"/><stop stop-color="#0048C9" offset=".336"/><stop stop-color="#0049CA" offset=".34"/><stop stop-color="#004ACA" offset=".344"/><stop stop-color="#004BCA" offset=".348"/><stop stop-color="#004CCB" offset=".352"/><stop stop-color="#004DCB" offset=".355"/><stop stop-color="#004FCC" offset=".359"/><stop stop-color="#0050CC" offset=".363"/><stop stop-color="#0051CC" offset=".367"/><stop stop-color="#0052CD" offset=".371"/><stop stop-color="#0053CD" offset=".375"/><stop stop-color="#0054CE" offset=".379"/><stop stop-color="#0055CE" offset=".383"/><stop stop-color="#0056CE" offset=".387"/><stop stop-color="#0057CF" offset=".391"/><stop stop-color="#0059CF" offset=".395"/><stop stop-color="#005AD0" offset=".398"/><stop stop-color="#005BD0" offset=".402"/><stop stop-color="#005CD0" offset=".406"/><stop stop-color="#005DD1" offset=".41"/><stop stop-color="#005ED1" offset=".414"/><stop stop-color="#005FD1" offset=".418"/><stop stop-color="#0060D2" offset=".422"/><stop stop-color="#0062D2" offset=".426"/><stop stop-color="#0063D3" offset=".43"/><stop stop-color="#0064D3" offset=".434"/><stop stop-color="#0065D3" offset=".438"/><stop stop-color="#0066D4" offset=".441"/><stop stop-color="#0067D4" offset=".445"/><stop stop-color="#0068D5" offset=".449"/><stop stop-color="#0069D5" offset=".453"/><stop stop-color="#006AD5" offset=".457"/><stop stop-color="#006CD6" offset=".461"/><stop stop-color="#006DD6" offset=".465"/><stop stop-color="#006ED7" offset=".469"/><stop stop-color="#006FD7" offset=".473"/><stop stop-color="#0070D7" offset=".477"/><stop stop-color="#0071D8" offset=".48"/><stop stop-color="#0072D8" offset=".484"/><stop stop-color="#0073D8" offset=".488"/><stop stop-color="#0074D9" offset=".492"/><stop stop-color="#0075D9" offset=".496"/><stop stop-color="#0076D9" offset=".5"/><stop stop-color="#0077DA" offset=".504"/><stop stop-color="#0078DA" offset=".508"/><stop stop-color="#0078DA" offset=".512"/><stop stop-color="#0079DA" offset=".516"/><stop stop-color="#007ADB" offset=".52"/><stop stop-color="#007BDB" offset=".523"/><stop stop-color="#007CDB" offset=".527"/><stop stop-color="#007DDC" offset=".531"/><stop stop-color="#007EDC" offset=".535"/><stop stop-color="#007FDC" offset=".539"/><stop stop-color="#0080DD" offset=".543"/><stop stop-color="#0081DD" offset=".547"/><stop stop-color="#0081DD" offset=".551"/><stop stop-color="#0082DD" offset=".555"/><stop stop-color="#0083DE" offset=".559"/><stop stop-color="#0084DE" offset=".563"/><stop stop-color="#0085DE" offset=".566"/><stop stop-color="#0086DF" offset=".57"/><stop stop-color="#0087DF" offset=".574"/><stop stop-color="#0088DF" offset=".578"/><stop stop-color="#0089E0" offset=".582"/><stop stop-color="#008AE0" offset=".586"/><stop stop-color="#008AE0" offset=".59"/><stop stop-color="#008BE0" offset=".594"/><stop stop-color="#008CE1" offset=".598"/><stop stop-color="#008DE1" offset=".602"/><stop stop-color="#008EE1" offset=".605"/><stop stop-color="#008FE2" offset=".609"/><stop stop-color="#0090E2" offset=".613"/><stop stop-color="#0091E2" offset=".617"/><stop stop-color="#0092E3" offset=".621"/><stop stop-color="#0093E3" offset=".625"/><stop stop-color="#0093E3" offset=".629"/><stop stop-color="#0094E3" offset=".633"/><stop stop-color="#0095E4" offset=".637"/><stop stop-color="#0096E4" offset=".641"/><stop stop-color="#0097E4" offset=".645"/><stop stop-color="#0097E4" offset=".648"/><stop stop-color="#0098E5" offset=".652"/><stop stop-color="#0099E5" offset=".656"/><stop stop-color="#0099E5" offset=".66"/><stop stop-color="#009AE5" offset=".664"/><stop stop-color="#009BE6" offset=".668"/><stop stop-color="#009BE6" offset=".672"/><stop stop-color="#009CE6" offset=".676"/><stop stop-color="#009DE6" offset=".68"/><stop stop-color="#009DE6" offset=".684"/><stop stop-color="#009EE7" offset=".688"/><stop stop-color="#009FE7" offset=".691"/><stop stop-color="#009FE7" offset=".695"/><stop stop-color="#00A0E7" offset=".699"/><stop stop-color="#00A1E8" offset=".703"/><stop stop-color="#00A1E8" offset=".707"/><stop stop-color="#00A2E8" offset=".711"/><stop stop-color="#00A2E8" offset=".715"/><stop stop-color="#00A3E8" offset=".719"/><stop stop-color="#00A4E9" offset=".723"/><stop stop-color="#00A4E9" offset=".727"/><stop stop-color="#00A5E9" offset=".73"/><stop stop-color="#00A6E9" offset=".734"/><stop stop-color="#00A6EA" offset=".738"/><stop stop-color="#00A7EA" offset=".742"/><stop stop-color="#00A8EA" offset=".746"/><stop stop-color="#00A8EA" offset=".75"/><stop stop-color="#00A9EA" offset=".754"/><stop stop-color="#00AAEB" offset=".758"/><stop stop-color="#00AAEB" offset=".762"/><stop stop-color="#00ABEB" offset=".766"/><stop stop-color="#00ABEB" offset=".773"/><stop stop-color="#00ACEB" offset=".781"/><stop stop-color="#00ADEC" offset=".789"/><stop stop-color="#00AEEC" offset=".797"/><stop stop-color="#00AEEC" offset=".805"/><stop stop-color="#00AFED" offset=".813"/><stop stop-color="#00B0ED" offset=".82"/><stop stop-color="#00B1ED" offset=".828"/><stop stop-color="#00B1ED" offset=".836"/><stop stop-color="#00B2EE" offset=".844"/><stop stop-color="#00B3EE" offset=".875"/><stop stop-color="#00B3EE" offset="1"/></linearGradient></defs><g clip-path="url(#a)"><g clip-path="url(#b)"><path fill="url(#c)" d="M 9.933594 216.207031 L 207.238281 413.511719 L 404.542969 216.207031 L 207.238281 18.902344 Z M 9.933594 216.207031"/></g></g><g clip-path="url(#d)"><g clip-path="url(#e)"><path fill="url(#f)" d="M -46.746094 175.496094 L 186.726562 408.96875 L 420.199219 175.496094 L 186.726562 -57.976562 Z M -46.746094 175.496094"/></g></g></svg>